%TF.GenerationSoftware,KiCad,Pcbnew,9.0.7*%
%TF.CreationDate,2026-05-16T20:36:17-03:00*%
%TF.ProjectId,citrouille90,63697472-6f75-4696-9c6c-6539302e6b69,1.0*%
%TF.SameCoordinates,Original*%
%TF.FileFunction,Soldermask,Bot*%
%TF.FilePolarity,Negative*%
%FSLAX46Y46*%
G04 Gerber Fmt 4.6, Leading zero omitted, Abs format (unit mm)*
G04 Created by KiCad (PCBNEW 9.0.7) date 2026-05-16 20:36:17*
%MOMM*%
%LPD*%
G01*
G04 APERTURE LIST*
G04 Aperture macros list*
%AMRoundRect*
0 Rectangle with rounded corners*
0 $1 Rounding radius*
0 $2 $3 $4 $5 $6 $7 $8 $9 X,Y pos of 4 corners*
0 Add a 4 corners polygon primitive as box body*
4,1,4,$2,$3,$4,$5,$6,$7,$8,$9,$2,$3,0*
0 Add four circle primitives for the rounded corners*
1,1,$1+$1,$2,$3*
1,1,$1+$1,$4,$5*
1,1,$1+$1,$6,$7*
1,1,$1+$1,$8,$9*
0 Add four rect primitives between the rounded corners*
20,1,$1+$1,$2,$3,$4,$5,0*
20,1,$1+$1,$4,$5,$6,$7,0*
20,1,$1+$1,$6,$7,$8,$9,0*
20,1,$1+$1,$8,$9,$2,$3,0*%
G04 Aperture macros list end*
%ADD10C,1.900000*%
%ADD11C,3.450000*%
%ADD12C,2.200000*%
%ADD13C,4.500000*%
%ADD14C,1.712000*%
%ADD15C,1.193800*%
%ADD16O,1.803400X2.794000*%
%ADD17R,1.700000X1.700000*%
%ADD18C,1.700000*%
%ADD19R,1.800000X1.800000*%
%ADD20C,1.800000*%
%ADD21R,1.950000X1.950000*%
%ADD22C,1.950000*%
%ADD23C,4.562000*%
%ADD24RoundRect,0.250000X-0.450000X0.262500X-0.450000X-0.262500X0.450000X-0.262500X0.450000X0.262500X0*%
%ADD25RoundRect,0.250000X0.262500X0.450000X-0.262500X0.450000X-0.262500X-0.450000X0.262500X-0.450000X0*%
%ADD26RoundRect,0.250000X-0.337500X-0.475000X0.337500X-0.475000X0.337500X0.475000X-0.337500X0.475000X0*%
G04 APERTURE END LIST*
D10*
%TO.C,SW61*%
X189793350Y31148053D03*
D11*
X195290000Y31340000D03*
D10*
X200786650Y31531947D03*
D12*
X195495907Y25443594D03*
X190425664Y27367817D03*
%TD*%
D10*
%TO.C,SW55*%
X67483374Y36169430D03*
D11*
X72820000Y37500000D03*
D10*
X78156626Y38830570D03*
D12*
X74247339Y31775255D03*
X68887825Y32603267D03*
%TD*%
D10*
%TO.C,SW81*%
X227513350Y-17571947D03*
D11*
X233010000Y-17380000D03*
D10*
X238506650Y-17188053D03*
D12*
X233215907Y-23276406D03*
X228145664Y-21352183D03*
%TD*%
D10*
%TO.C,SW27*%
X-121556626Y13580570D03*
D11*
X-116220000Y12250000D03*
D10*
X-110883374Y10919430D03*
D12*
X-117647339Y6525255D03*
X-121990782Y9772486D03*
%TD*%
D10*
%TO.C,SW51*%
X171343350Y43508053D03*
D11*
X176840000Y43700000D03*
D10*
X182336650Y43891947D03*
D12*
X177045907Y37803594D03*
X171975664Y39727817D03*
%TD*%
D13*
%TO.C,H5*%
X0Y-29800000D03*
%TD*%
D10*
%TO.C,SW34*%
X-86376626Y5840570D03*
D11*
X-81040000Y4510000D03*
D10*
X-75703374Y3179430D03*
D12*
X-82467339Y-1214745D03*
X-86810782Y2032486D03*
%TD*%
D10*
%TO.C,SW49*%
X132213398Y29856340D03*
D11*
X137700000Y30240000D03*
D10*
X143186602Y30623660D03*
D12*
X138111563Y24354372D03*
X132977255Y26100474D03*
%TD*%
D10*
%TO.C,SW89*%
X209693350Y-23191947D03*
D11*
X215190000Y-23000000D03*
D10*
X220686650Y-22808053D03*
D12*
X215395907Y-28896406D03*
X210325664Y-26972183D03*
%TD*%
D10*
%TO.C,SW82*%
X84173374Y-30780571D03*
D11*
X89510000Y-29450000D03*
D10*
X94846626Y-28119429D03*
D12*
X90937339Y-35174745D03*
X85577825Y-34346733D03*
%TD*%
D10*
%TO.C,SW86*%
X156373398Y-26463661D03*
D11*
X161860000Y-26080000D03*
D10*
X167346602Y-25696339D03*
D12*
X162271563Y-31965628D03*
X157137254Y-30219526D03*
%TD*%
D10*
%TO.C,SW72*%
X226923350Y-581947D03*
D11*
X232420000Y-390000D03*
D10*
X237916650Y-198053D03*
D12*
X232625907Y-6286406D03*
X227555664Y-4362183D03*
%TD*%
D10*
%TO.C,SW36*%
X-125666626Y-2909430D03*
D11*
X-120330000Y-4240000D03*
D10*
X-114993374Y-5570570D03*
D12*
X-121757339Y-9964745D03*
X-126100782Y-6717514D03*
%TD*%
D10*
%TO.C,SW56*%
X87853374Y28889430D03*
D11*
X93190000Y30220000D03*
D10*
X98526626Y31550570D03*
D12*
X94617339Y24495255D03*
X89257825Y25323267D03*
%TD*%
D10*
%TO.C,SW10*%
X49043374Y35699429D03*
D11*
X54380000Y37030000D03*
D10*
X59716626Y38360571D03*
D12*
X55807339Y31305255D03*
X50447825Y32133267D03*
%TD*%
D10*
%TO.C,SW22*%
X-31326626Y3450570D03*
D11*
X-25990000Y2120000D03*
D10*
X-20653374Y789430D03*
D12*
X-27417339Y-3604745D03*
X-31760782Y-357514D03*
%TD*%
D10*
%TO.C,SW7*%
X-74046626Y55330570D03*
D11*
X-68710000Y54000000D03*
D10*
X-63373374Y52669430D03*
D12*
X-70137339Y48275255D03*
X-74480782Y51522486D03*
%TD*%
D13*
%TO.C,H9*%
X234500000Y-47500000D03*
%TD*%
D10*
%TO.C,SW88*%
X191573350Y-19821947D03*
D11*
X197070000Y-19630000D03*
D10*
X202566650Y-19438053D03*
D12*
X197275907Y-25526406D03*
X192205664Y-23602183D03*
%TD*%
D10*
%TO.C,SW18*%
X-117436626Y30080570D03*
D11*
X-112100000Y28750000D03*
D10*
X-106763374Y27419430D03*
D12*
X-113527339Y23025255D03*
X-117870782Y26272486D03*
%TD*%
D10*
%TO.C,SW12*%
X16533374Y17289429D03*
D11*
X21870000Y18620000D03*
D10*
X27206626Y19950571D03*
D12*
X23297339Y12895255D03*
X17937825Y13723267D03*
%TD*%
D10*
%TO.C,SW87*%
X162153071Y-44478685D03*
D11*
X167585357Y-43618295D03*
D10*
X173017643Y-42757905D03*
D12*
X168508320Y-49445656D03*
X163241366Y-48153683D03*
%TD*%
D10*
%TO.C,SW35*%
X-106746626Y-1439430D03*
D11*
X-101410000Y-2770000D03*
D10*
X-96073374Y-4100570D03*
D12*
X-102837339Y-8494745D03*
X-107180782Y-5247514D03*
%TD*%
D10*
%TO.C,SW6*%
X-55606626Y54860570D03*
D11*
X-50270000Y53530000D03*
D10*
X-44933374Y52199430D03*
D12*
X-51697339Y47805255D03*
X-56040782Y51052486D03*
%TD*%
D10*
%TO.C,SW19*%
X36663374Y10969429D03*
D11*
X42000000Y12300000D03*
D10*
X47336626Y13630571D03*
D12*
X43427339Y6575255D03*
X38067825Y7403267D03*
%TD*%
D10*
%TO.C,SW3*%
X12423374Y33779429D03*
D11*
X17760000Y35110000D03*
D10*
X23096626Y36440571D03*
D12*
X19187339Y29385255D03*
X13827825Y30213267D03*
%TD*%
D10*
%TO.C,SW8*%
X-94406626Y48040570D03*
D11*
X-89070000Y46710000D03*
D10*
X-83733374Y45379430D03*
D12*
X-90497339Y40985255D03*
X-94840782Y44232486D03*
%TD*%
D10*
%TO.C,SW78*%
X173123350Y-7461947D03*
D11*
X178620000Y-7270000D03*
D10*
X184116650Y-7078053D03*
D12*
X178825907Y-13166406D03*
X173755664Y-11242183D03*
%TD*%
D14*
%TO.C,SWPB1*%
X234530000Y63750000D03*
X234530000Y57250000D03*
X230030000Y63750000D03*
X230030000Y57250000D03*
%TD*%
D10*
%TO.C,SW76*%
X96073374Y-4100570D03*
D11*
X101410000Y-2770000D03*
D10*
X106746626Y-1439430D03*
D12*
X102837339Y-8494745D03*
X97477825Y-7666733D03*
%TD*%
D10*
%TO.C,SW85*%
X138133398Y-23733661D03*
D11*
X143620000Y-23350000D03*
D10*
X149106602Y-22966339D03*
D12*
X144031563Y-29235628D03*
X138897254Y-27489526D03*
%TD*%
D10*
%TO.C,SW54*%
X225733350Y33398053D03*
D11*
X231230000Y33590000D03*
D10*
X236726650Y33781947D03*
D12*
X231435907Y27693594D03*
X226365664Y29617817D03*
%TD*%
D10*
%TO.C,SW66*%
X91963374Y12389430D03*
D11*
X97300000Y13720000D03*
D10*
X102636626Y15050570D03*
D12*
X98727339Y7995255D03*
X93367825Y8823267D03*
%TD*%
D10*
%TO.C,SW70*%
X190383350Y14158053D03*
D11*
X195880000Y14350000D03*
D10*
X201376650Y14541947D03*
D12*
X196085907Y8453594D03*
X191015664Y10377817D03*
%TD*%
D10*
%TO.C,SW75*%
X75703374Y3179430D03*
D11*
X81040000Y4510000D03*
D10*
X86376626Y5840570D03*
D12*
X82467339Y-1214745D03*
X77107825Y-386733D03*
%TD*%
D10*
%TO.C,SW60*%
X171943350Y26518053D03*
D11*
X177440000Y26710000D03*
D10*
X182936650Y26901947D03*
D12*
X177645907Y20813594D03*
X172575664Y22737817D03*
%TD*%
D10*
%TO.C,SW1*%
X44933374Y52199429D03*
D11*
X50270000Y53530000D03*
D10*
X55606626Y54860571D03*
D12*
X51697339Y47805255D03*
X46337825Y48633267D03*
%TD*%
D10*
%TO.C,SW65*%
X71593374Y19679430D03*
D11*
X76930000Y21010000D03*
D10*
X82266626Y22340570D03*
D12*
X78357339Y15285255D03*
X72997825Y16113267D03*
%TD*%
D10*
%TO.C,SW26*%
X-102636626Y15050570D03*
D11*
X-97300000Y13720000D03*
D10*
X-91963374Y12389430D03*
D12*
X-98727339Y7995255D03*
X-103070782Y11242486D03*
%TD*%
D10*
%TO.C,SW5*%
X-39106626Y46620570D03*
D11*
X-33770000Y45290000D03*
D10*
X-28433374Y43959430D03*
D12*
X-35197339Y39565255D03*
X-39540782Y42812486D03*
%TD*%
D10*
%TO.C,SW80*%
X209103350Y-6201947D03*
D11*
X214600000Y-6010000D03*
D10*
X220096650Y-5818053D03*
D12*
X214805907Y-11906406D03*
X209735664Y-9982183D03*
%TD*%
D10*
%TO.C,SW39*%
X16674664Y-43374670D03*
D11*
X21180000Y-40220000D03*
D10*
X25685336Y-37065330D03*
D12*
X24564101Y-45052997D03*
X19263830Y-46200660D03*
%TD*%
D15*
%TO.C,J3*%
X1869999Y59009100D03*
X1070000Y60209100D03*
X269999Y59009100D03*
X-530002Y60209100D03*
X-1330000Y59009100D03*
D16*
X3920000Y64059100D03*
X-3380001Y64059100D03*
%TD*%
D10*
%TO.C,SW57*%
X106763374Y27419430D03*
D11*
X112100000Y28750000D03*
D10*
X117436626Y30080570D03*
D12*
X113527339Y23025255D03*
X108167825Y23853267D03*
%TD*%
D10*
%TO.C,SW79*%
X190973350Y-2831947D03*
D11*
X196470000Y-2640000D03*
D10*
X201966650Y-2448053D03*
D12*
X196675907Y-8536406D03*
X191605664Y-6612183D03*
%TD*%
D10*
%TO.C,SW21*%
X-5499999Y0D03*
D11*
X0Y0D03*
D10*
X5499999Y0D03*
D12*
X0Y-5900000D03*
X-5000000Y-3800000D03*
%TD*%
D10*
%TO.C,SW44*%
X-111346626Y-19879430D03*
D11*
X-106010000Y-21210000D03*
D10*
X-100673374Y-22540570D03*
D12*
X-107437339Y-26934745D03*
X-111780782Y-23687514D03*
%TD*%
D10*
%TO.C,SW73*%
X40773374Y-5530570D03*
D11*
X46110000Y-4200000D03*
D10*
X51446626Y-2869430D03*
D12*
X47537339Y-9924745D03*
X42177825Y-9096733D03*
%TD*%
D10*
%TO.C,SW33*%
X-67946626Y5370570D03*
D11*
X-62610000Y4040000D03*
D10*
X-57273374Y2709430D03*
D12*
X-64037339Y-1684745D03*
X-68380782Y1562486D03*
%TD*%
D10*
%TO.C,SW63*%
X226323350Y16408053D03*
D11*
X231820000Y16600000D03*
D10*
X237316650Y16791947D03*
D12*
X232025907Y10703594D03*
X226955664Y12627817D03*
%TD*%
D17*
%TO.C,J1*%
X22495000Y57500000D03*
D18*
X19955000Y57500000D03*
X17415000Y57500000D03*
%TD*%
D10*
%TO.C,SW84*%
X120453398Y-28983660D03*
D11*
X125940000Y-28600000D03*
D10*
X131426602Y-28216340D03*
D12*
X126351563Y-34485628D03*
X121217255Y-32739526D03*
%TD*%
D19*
%TO.C,LED3*%
X127270000Y60500000D03*
D20*
X129810000Y60500000D03*
%TD*%
D10*
%TO.C,SW31*%
X-35436626Y-13039430D03*
D11*
X-30100000Y-14370000D03*
D10*
X-24763374Y-15700570D03*
D12*
X-31527339Y-20094745D03*
X-35870782Y-16847514D03*
%TD*%
D10*
%TO.C,SW69*%
X172533350Y9528053D03*
D11*
X178030000Y9720000D03*
D10*
X183526650Y9911947D03*
D12*
X178235907Y3823594D03*
X173165664Y5747817D03*
%TD*%
D10*
%TO.C,SW24*%
X-63836626Y21870570D03*
D11*
X-58500000Y20540000D03*
D10*
X-53163374Y19209430D03*
D12*
X-59927339Y14815255D03*
X-64270782Y18062486D03*
%TD*%
D10*
%TO.C,SW77*%
X114993374Y-5570570D03*
D11*
X120330000Y-4240000D03*
D10*
X125666626Y-2909430D03*
D12*
X121757339Y-9964745D03*
X116397825Y-9136733D03*
%TD*%
D10*
%TO.C,SW90*%
X228103350Y-34561947D03*
D11*
X233600000Y-34370000D03*
D10*
X239096650Y-34178053D03*
D12*
X233805907Y-40266406D03*
X228735664Y-38342183D03*
%TD*%
D10*
%TO.C,SW2*%
X28433374Y43959429D03*
D11*
X33770000Y45290000D03*
D10*
X39106626Y46620571D03*
D12*
X35197339Y39565255D03*
X29837825Y40393267D03*
%TD*%
D10*
%TO.C,SW83*%
X100673374Y-22540570D03*
D11*
X106010000Y-21210000D03*
D10*
X111346626Y-19879430D03*
D12*
X107437339Y-26934745D03*
X102077825Y-26106733D03*
%TD*%
D10*
%TO.C,SW38*%
X35077391Y-33500456D03*
D11*
X40229087Y-31574315D03*
D10*
X45380783Y-29648174D03*
D12*
X42295311Y-37100681D03*
X36876514Y-36884706D03*
%TD*%
D13*
%TO.C,H6*%
X71000000Y-7600000D03*
%TD*%
D10*
%TO.C,SW40*%
X-25685271Y-37060653D03*
D11*
X-21179935Y-40215323D03*
D10*
X-16674599Y-43369993D03*
D12*
X-24564036Y-45048320D03*
X-27455285Y-40460218D03*
%TD*%
D10*
%TO.C,SW47*%
X83733374Y45379430D03*
D11*
X89070000Y46710000D03*
D10*
X94406626Y48040570D03*
D12*
X90497339Y40985255D03*
X85137825Y41813267D03*
%TD*%
D10*
%TO.C,SW41*%
X-44885200Y-29420872D03*
D11*
X-39733503Y-31347013D03*
D10*
X-34581806Y-33273154D03*
D12*
X-41799727Y-36873379D03*
X-45747652Y-33155330D03*
%TD*%
D10*
%TO.C,SW32*%
X-51446626Y-2869430D03*
D11*
X-46110000Y-4200000D03*
D10*
X-40773374Y-5530570D03*
D12*
X-47537339Y-9924745D03*
X-51880782Y-6677514D03*
%TD*%
D10*
%TO.C,SW50*%
X150173398Y31116339D03*
D11*
X155660000Y31500000D03*
D10*
X161146602Y31883661D03*
D12*
X156071563Y25614372D03*
X150937254Y27360474D03*
%TD*%
D10*
%TO.C,SW11*%
X32553374Y27469429D03*
D11*
X37890000Y28800000D03*
D10*
X43226626Y30130571D03*
D12*
X39317339Y23075255D03*
X33957825Y23903267D03*
%TD*%
D10*
%TO.C,SW4*%
X-23096626Y36440570D03*
D11*
X-17760000Y35110000D03*
D10*
X-12423374Y33779430D03*
D12*
X-19187339Y29385255D03*
X-23530782Y32632486D03*
%TD*%
D10*
%TO.C,SW28*%
X24763374Y-15700571D03*
D11*
X30100000Y-14370000D03*
D10*
X35436626Y-13039429D03*
D12*
X31527339Y-20094745D03*
X26167825Y-19266733D03*
%TD*%
D21*
%TO.C,ENC1*%
X-130050000Y49587500D03*
D22*
X-125050000Y49587500D03*
X-127550000Y49587500D03*
D23*
X-133150000Y57087500D03*
X-121950000Y57087500D03*
%TD*%
D10*
%TO.C,SW25*%
X-82266626Y22340570D03*
D11*
X-76930000Y21010000D03*
D10*
X-71593374Y19679430D03*
D12*
X-78357339Y15285255D03*
X-82700782Y18532486D03*
%TD*%
D10*
%TO.C,SW62*%
X207913350Y27778053D03*
D11*
X213410000Y27970000D03*
D10*
X218906650Y28161947D03*
D12*
X213615907Y22073594D03*
X208545664Y23997817D03*
%TD*%
D10*
%TO.C,SW46*%
X63373374Y52669430D03*
D11*
X68710000Y54000000D03*
D10*
X74046626Y55330570D03*
D12*
X70137339Y48275255D03*
X64777825Y49103267D03*
%TD*%
D10*
%TO.C,SW58*%
X133403398Y12896340D03*
D11*
X138890000Y13280000D03*
D10*
X144376602Y13663660D03*
D12*
X139301563Y7394372D03*
X134167255Y9140474D03*
%TD*%
D10*
%TO.C,SW59*%
X151353398Y14156339D03*
D11*
X156840000Y14540000D03*
D10*
X162326602Y14923661D03*
D12*
X157251563Y8654372D03*
X152117254Y10400474D03*
%TD*%
D10*
%TO.C,SW23*%
X-47336626Y13630570D03*
D11*
X-42000000Y12300000D03*
D10*
X-36663374Y10969430D03*
D12*
X-43427339Y6575255D03*
X-47770782Y9822486D03*
%TD*%
D10*
%TO.C,SW42*%
X-65530863Y-26735039D03*
D11*
X-60038401Y-27022887D03*
D10*
X-54545939Y-27310735D03*
D12*
X-60347183Y-32914801D03*
X-65230425Y-30556000D03*
%TD*%
D10*
%TO.C,SW29*%
X3500001Y-17000000D03*
D11*
X9000000Y-17000000D03*
D10*
X14499999Y-17000000D03*
D12*
X9000000Y-22900000D03*
X4000000Y-20800000D03*
%TD*%
D10*
%TO.C,SW45*%
X-129776626Y-19409430D03*
D11*
X-124440000Y-20740000D03*
D10*
X-119103374Y-22070570D03*
D12*
X-125867339Y-26464745D03*
X-130210782Y-23217514D03*
%TD*%
D19*
%TO.C,LED1*%
X140485000Y60500000D03*
D20*
X143025000Y60500000D03*
%TD*%
D10*
%TO.C,SW15*%
X-59716626Y38360570D03*
D11*
X-54380000Y37030000D03*
D10*
X-49043374Y35699430D03*
D12*
X-55807339Y31305255D03*
X-60150782Y34552486D03*
%TD*%
D10*
%TO.C,SW30*%
X-14499999Y-17000000D03*
D11*
X-9000000Y-17000000D03*
D10*
X-3500001Y-17000000D03*
D12*
X-9000000Y-22900000D03*
X-14000000Y-20800000D03*
%TD*%
D13*
%TO.C,H1*%
X-127500000Y42900000D03*
%TD*%
D10*
%TO.C,SW71*%
X208513350Y10788053D03*
D11*
X214010000Y10980000D03*
D10*
X219506650Y11171947D03*
D12*
X214215907Y5083594D03*
X209145664Y7007817D03*
%TD*%
D10*
%TO.C,SW37*%
X55029063Y-27495205D03*
D11*
X60521525Y-27207357D03*
D10*
X66013987Y-26919509D03*
D12*
X60830307Y-33099271D03*
X55727254Y-31263829D03*
%TD*%
D13*
%TO.C,H3*%
X-71000000Y-7600000D03*
%TD*%
D10*
%TO.C,SW9*%
X-113326626Y46570570D03*
D11*
X-107990000Y45240000D03*
D10*
X-102653374Y43909430D03*
D12*
X-109417339Y39515255D03*
X-113760782Y42762486D03*
%TD*%
D13*
%TO.C,H7*%
X155000000Y0D03*
%TD*%
D10*
%TO.C,SW43*%
X-94846626Y-28119430D03*
D11*
X-89510000Y-29450000D03*
D10*
X-84173374Y-30780570D03*
D12*
X-90937339Y-35174745D03*
X-95280782Y-31927514D03*
%TD*%
D10*
%TO.C,SW52*%
X189193350Y48138053D03*
D11*
X194690000Y48330000D03*
D10*
X200186650Y48521947D03*
D12*
X194895907Y42433594D03*
X189825664Y44357817D03*
%TD*%
D10*
%TO.C,SW14*%
X-43226626Y30130570D03*
D11*
X-37890000Y28800000D03*
D10*
X-32553374Y27469430D03*
D12*
X-39317339Y23075255D03*
X-43660782Y26322486D03*
%TD*%
D10*
%TO.C,SW20*%
X20653374Y789429D03*
D11*
X25990000Y2120000D03*
D10*
X31326626Y3450571D03*
D12*
X27417339Y-3604745D03*
X22057825Y-2776733D03*
%TD*%
D10*
%TO.C,SW67*%
X110883374Y10919430D03*
D11*
X116220000Y12250000D03*
D10*
X121556626Y13580570D03*
D12*
X117647339Y6525255D03*
X112287825Y7353267D03*
%TD*%
D13*
%TO.C,H4*%
X10340000Y64130000D03*
%TD*%
D10*
%TO.C,SW13*%
X-27206626Y19950570D03*
D11*
X-21870000Y18620000D03*
D10*
X-16533374Y17289430D03*
D12*
X-23297339Y12895255D03*
X-27640782Y16142486D03*
%TD*%
D10*
%TO.C,SW16*%
X-78156626Y38830570D03*
D11*
X-72820000Y37500000D03*
D10*
X-67483374Y36169430D03*
D12*
X-74247339Y31775255D03*
X-78590782Y35022486D03*
%TD*%
D10*
%TO.C,SW68*%
X136943398Y-6773661D03*
D11*
X142430000Y-6390000D03*
D10*
X147916602Y-6006339D03*
D12*
X142841563Y-12275628D03*
X137707254Y-10529526D03*
%TD*%
D10*
%TO.C,SW74*%
X57273374Y2709430D03*
D11*
X62610000Y4040000D03*
D10*
X67946626Y5370570D03*
D12*
X64037339Y-1684745D03*
X58677825Y-856733D03*
%TD*%
D13*
%TO.C,H8*%
X234460000Y48420000D03*
%TD*%
D10*
%TO.C,SW48*%
X102653374Y43909430D03*
D11*
X107990000Y45240000D03*
D10*
X113326626Y46570570D03*
D12*
X109417339Y39515255D03*
X104057825Y40343267D03*
%TD*%
D10*
%TO.C,SW64*%
X53163374Y19209430D03*
D11*
X58500000Y20540000D03*
D10*
X63836626Y21870570D03*
D12*
X59927339Y14815255D03*
X54567825Y15643267D03*
%TD*%
D13*
%TO.C,H2*%
X-127500000Y-47500000D03*
%TD*%
D10*
%TO.C,SW17*%
X-98526626Y31550570D03*
D11*
X-93190000Y30220000D03*
D10*
X-87853374Y28889430D03*
D12*
X-94617339Y24495255D03*
X-98960782Y27742486D03*
%TD*%
D19*
%TO.C,LED2*%
X153700000Y60500000D03*
D20*
X156240000Y60500000D03*
%TD*%
D10*
%TO.C,SW53*%
X207323350Y44768053D03*
D11*
X212820000Y44960000D03*
D10*
X218316650Y45151947D03*
D12*
X213025907Y39063594D03*
X207955664Y40987817D03*
%TD*%
D24*
%TO.C,R13*%
X-18827500Y64872500D03*
X-18827500Y63047500D03*
%TD*%
D25*
%TO.C,R5*%
X-8377500Y64770000D03*
X-10202500Y64770000D03*
%TD*%
D24*
%TO.C,R12*%
X-15437500Y64872500D03*
X-15437500Y63047500D03*
%TD*%
D26*
%TO.C,C3*%
X-10397500Y61290000D03*
X-8322500Y61290000D03*
%TD*%
M02*
