M48
; DRILL file {KiCad 9.0.7} date 2026-05-16T20:37:03-0300
; FORMAT={-:-/ absolute / metric / decimal}
; #@! TF.CreationDate,2026-05-16T20:37:03-03:00
; #@! TF.GenerationSoftware,Kicad,Pcbnew,9.0.7
; #@! TF.FileFunction,NonPlated,1,2,NPTH
FMAT,2
METRIC
; #@! TA.AperFunction,NonPlated,NPTH,ComponentDrill
T1C1.900
; #@! TA.AperFunction,NonPlated,NPTH,ComponentDrill
T2C3.450
%
G90
G05
T1
X-129.777Y-19.409
X-125.667Y-2.909
X-121.557Y13.581
X-119.103Y-22.071
X-117.437Y30.081
X-114.993Y-5.571
X-113.327Y46.571
X-111.347Y-19.879
X-110.883Y10.919
X-106.763Y27.419
X-106.747Y-1.439
X-102.653Y43.909
X-102.637Y15.051
X-100.673Y-22.541
X-98.527Y31.551
X-96.073Y-4.101
X-94.847Y-28.119
X-94.407Y48.041
X-91.963Y12.389
X-87.853Y28.889
X-86.377Y5.841
X-84.173Y-30.781
X-83.733Y45.379
X-82.267Y22.341
X-78.157Y38.831
X-75.703Y3.179
X-74.047Y55.331
X-71.593Y19.679
X-67.947Y5.371
X-67.483Y36.169
X-65.531Y-26.735
X-63.837Y21.871
X-63.373Y52.669
X-59.717Y38.361
X-57.273Y2.709
X-55.607Y54.861
X-54.546Y-27.311
X-53.163Y19.209
X-51.447Y-2.869
X-49.043Y35.699
X-47.337Y13.631
X-44.933Y52.199
X-44.885Y-29.421
X-43.227Y30.131
X-40.773Y-5.531
X-39.107Y46.621
X-36.663Y10.969
X-35.437Y-13.039
X-34.582Y-33.273
X-32.553Y27.469
X-31.327Y3.451
X-28.433Y43.959
X-27.207Y19.951
X-25.685Y-37.061
X-24.763Y-15.701
X-23.097Y36.441
X-20.653Y0.789
X-16.675Y-43.37
X-16.533Y17.289
X-14.5Y-17.0
X-12.423Y33.779
X-5.5Y0.0
X-3.5Y-17.0
X3.5Y-17.0
X5.5Y0.0
X12.423Y33.779
X14.5Y-17.0
X16.533Y17.289
X16.675Y-43.375
X20.653Y0.789
X23.097Y36.441
X24.763Y-15.701
X25.685Y-37.065
X27.207Y19.951
X28.433Y43.959
X31.327Y3.451
X32.553Y27.469
X35.077Y-33.5
X35.437Y-13.039
X36.663Y10.969
X39.107Y46.621
X40.773Y-5.531
X43.227Y30.131
X44.933Y52.199
X45.381Y-29.648
X47.337Y13.631
X49.043Y35.699
X51.447Y-2.869
X53.163Y19.209
X55.029Y-27.495
X55.607Y54.861
X57.273Y2.709
X59.717Y38.361
X63.373Y52.669
X63.837Y21.871
X66.014Y-26.92
X67.483Y36.169
X67.947Y5.371
X71.593Y19.679
X74.047Y55.331
X75.703Y3.179
X78.157Y38.831
X82.267Y22.341
X83.733Y45.379
X84.173Y-30.781
X86.377Y5.841
X87.853Y28.889
X91.963Y12.389
X94.407Y48.041
X94.847Y-28.119
X96.073Y-4.101
X98.527Y31.551
X100.673Y-22.541
X102.637Y15.051
X102.653Y43.909
X106.747Y-1.439
X106.763Y27.419
X110.883Y10.919
X111.347Y-19.879
X113.327Y46.571
X114.993Y-5.571
X117.437Y30.081
X120.453Y-28.984
X121.557Y13.581
X125.667Y-2.909
X131.427Y-28.216
X132.213Y29.856
X133.403Y12.896
X136.943Y-6.774
X138.133Y-23.734
X143.187Y30.624
X144.377Y13.664
X147.917Y-6.006
X149.107Y-22.966
X150.173Y31.116
X151.353Y14.156
X156.373Y-26.464
X161.147Y31.884
X162.153Y-44.479
X162.327Y14.924
X167.347Y-25.696
X171.343Y43.508
X171.943Y26.518
X172.533Y9.528
X173.018Y-42.758
X173.123Y-7.462
X182.337Y43.892
X182.937Y26.902
X183.527Y9.912
X184.117Y-7.078
X189.193Y48.138
X189.793Y31.148
X190.383Y14.158
X190.973Y-2.832
X191.573Y-19.822
X200.187Y48.522
X200.787Y31.532
X201.377Y14.542
X201.967Y-2.448
X202.567Y-19.438
X207.323Y44.768
X207.913Y27.778
X208.513Y10.788
X209.103Y-6.202
X209.693Y-23.192
X218.317Y45.152
X218.907Y28.162
X219.507Y11.172
X220.097Y-5.818
X220.687Y-22.808
X225.733Y33.398
X226.323Y16.408
X226.923Y-0.582
X227.513Y-17.572
X228.103Y-34.562
X236.727Y33.782
X237.317Y16.792
X237.917Y-0.198
X238.507Y-17.188
X239.097Y-34.178
T2
X-124.44Y-20.74
X-120.33Y-4.24
X-116.22Y12.25
X-112.1Y28.75
X-107.99Y45.24
X-106.01Y-21.21
X-101.41Y-2.77
X-97.3Y13.72
X-93.19Y30.22
X-89.51Y-29.45
X-89.07Y46.71
X-81.04Y4.51
X-76.93Y21.01
X-72.82Y37.5
X-68.71Y54.0
X-62.61Y4.04
X-60.038Y-27.023
X-58.5Y20.54
X-54.38Y37.03
X-50.27Y53.53
X-46.11Y-4.2
X-42.0Y12.3
X-39.734Y-31.347
X-37.89Y28.8
X-33.77Y45.29
X-30.1Y-14.37
X-25.99Y2.12
X-21.87Y18.62
X-21.18Y-40.215
X-17.76Y35.11
X-9.0Y-17.0
X0.0Y0.0
X9.0Y-17.0
X17.76Y35.11
X21.18Y-40.22
X21.87Y18.62
X25.99Y2.12
X30.1Y-14.37
X33.77Y45.29
X37.89Y28.8
X40.229Y-31.574
X42.0Y12.3
X46.11Y-4.2
X50.27Y53.53
X54.38Y37.03
X58.5Y20.54
X60.522Y-27.207
X62.61Y4.04
X68.71Y54.0
X72.82Y37.5
X76.93Y21.01
X81.04Y4.51
X89.07Y46.71
X89.51Y-29.45
X93.19Y30.22
X97.3Y13.72
X101.41Y-2.77
X106.01Y-21.21
X107.99Y45.24
X112.1Y28.75
X116.22Y12.25
X120.33Y-4.24
X125.94Y-28.6
X137.7Y30.24
X138.89Y13.28
X142.43Y-6.39
X143.62Y-23.35
X155.66Y31.5
X156.84Y14.54
X161.86Y-26.08
X167.585Y-43.618
X176.84Y43.7
X177.44Y26.71
X178.03Y9.72
X178.62Y-7.27
X194.69Y48.33
X195.29Y31.34
X195.88Y14.35
X196.47Y-2.64
X197.07Y-19.63
X212.82Y44.96
X213.41Y27.97
X214.01Y10.98
X214.6Y-6.01
X215.19Y-23.0
X231.23Y33.59
X231.82Y16.6
X232.42Y-0.39
X233.01Y-17.38
X233.6Y-34.37
M30
