M48
; DRILL file {KiCad 9.0.7} date 2026-05-16T20:24:27-0300
; FORMAT={-:-/ absolute / metric / decimal}
; #@! TF.CreationDate,2026-05-16T20:24:27-03:00
; #@! TF.GenerationSoftware,Kicad,Pcbnew,9.0.7
; #@! TF.FileFunction,MixedPlating,1,2
FMAT,2
METRIC
; #@! TA.AperFunction,Plated,PTH,ViaDrill
T1C0.300
; #@! TA.AperFunction,Plated,PTH,ComponentDrill
T2C0.762
; #@! TA.AperFunction,Plated,PTH,ComponentDrill
T3C0.900
; #@! TA.AperFunction,Plated,PTH,ComponentDrill
T4C1.000
; #@! TA.AperFunction,Plated,PTH,ComponentDrill
T5C1.200
; #@! TA.AperFunction,Plated,PTH,ComponentDrill
T6C1.300
; #@! TA.AperFunction,Plated,PTH,ComponentDrill
T7C2.700
; #@! TA.AperFunction,Plated,PTH,ComponentDrill
T8C3.041
; #@! TA.AperFunction,NonPlated,NPTH,ComponentDrill
T9C1.900
; #@! TA.AperFunction,NonPlated,NPTH,ComponentDrill
T10C3.450
%
G90
G05
T1
X-85.9Y47.9
X-57.43Y65.42
X-46.3Y54.15
X-45.35Y-46.35
X-35.55Y25.3
X-32.9Y62.03
X-30.2Y41.0
X-29.0Y46.6
X-27.2Y63.4
X-15.9Y32.5
X-15.1Y7.85
X-15.1Y4.75
X-13.65Y7.55
X-13.65Y4.75
X-13.65Y-7.7
X-13.5Y-11.9
X-11.5Y10.25
X-10.2Y20.75
X-10.15Y19.6
X-9.05Y18.15
X-4.35Y10.0
X-4.2Y25.0
X-4.2Y22.55
X-3.1Y9.25
X-2.6Y-6.25
X-2.55Y23.55
X-2.4Y39.8
X-0.95Y24.45
X-0.65Y20.2
X0.75Y55.85
X1.4Y11.65
X2.65Y14.95
X3.0Y11.55
X3.1Y39.75
X3.25Y12.95
X4.12Y31.82
X4.16Y30.4
X4.2Y27.4
X4.25Y28.9
X4.5Y25.95
X4.6Y24.1
X4.9Y13.75
X6.5Y24.6
X6.9Y9.3
X8.3Y14.15
X8.3Y12.45
X8.45Y19.1
X8.84Y32.28
X8.85Y30.45
X8.85Y23.6
X8.9Y24.65
X11.25Y29.05
X11.3Y26.75
X12.5Y13.15
X15.23Y65.9
X16.15Y20.45
X16.45Y30.05
X20.7Y4.05
X21.15Y12.3
X22.75Y33.35
X23.55Y25.93
X24.8Y21.05
X28.8Y7.65
X30.55Y8.25
X41.6Y34.05
X58.95Y40.85
X120.53Y62.0
X121.8Y31.75
X123.95Y29.6
X126.55Y37.65
X129.25Y35.25
T2
X-1.33Y59.009
X-0.53Y60.209
X0.27Y59.009
X1.07Y60.209
X1.87Y59.009
T3
X127.27Y60.5
X129.81Y60.5
X140.485Y60.5
X143.025Y60.5
X153.7Y60.5
X156.24Y60.5
T4
X17.415Y57.5
X19.955Y57.5
X22.495Y57.5
X230.03Y63.75
X230.03Y57.25
X234.53Y63.75
X234.53Y57.25
T5
X-130.211Y-23.218
X-126.101Y-6.718
X-125.867Y-26.465
X-121.991Y9.772
X-121.757Y-9.965
X-117.871Y26.272
X-117.647Y6.525
X-113.761Y42.762
X-113.527Y23.025
X-111.781Y-23.688
X-109.417Y39.515
X-107.437Y-26.935
X-107.181Y-5.248
X-103.071Y11.242
X-102.837Y-8.495
X-98.961Y27.742
X-98.727Y7.995
X-95.281Y-31.928
X-94.841Y44.232
X-94.617Y24.495
X-90.937Y-35.175
X-90.497Y40.985
X-86.811Y2.032
X-82.701Y18.532
X-82.467Y-1.215
X-78.591Y35.022
X-78.357Y15.285
X-74.481Y51.522
X-74.247Y31.775
X-70.137Y48.275
X-68.381Y1.562
X-65.23Y-30.556
X-64.271Y18.062
X-64.037Y-1.685
X-60.347Y-32.915
X-60.151Y34.552
X-59.927Y14.815
X-56.041Y51.052
X-55.807Y31.305
X-51.881Y-6.678
X-51.697Y47.805
X-47.771Y9.822
X-47.537Y-9.925
X-45.748Y-33.155
X-43.661Y26.322
X-43.427Y6.575
X-41.8Y-36.873
X-39.541Y42.812
X-39.317Y23.075
X-35.871Y-16.848
X-35.197Y39.565
X-31.761Y-0.358
X-31.527Y-20.095
X-27.641Y16.142
X-27.455Y-40.46
X-27.417Y-3.605
X-24.564Y-45.048
X-23.531Y32.632
X-23.297Y12.895
X-19.187Y29.385
X-14.0Y-20.8
X-9.0Y-22.9
X-5.0Y-3.8
X0.0Y-5.9
X4.0Y-20.8
X9.0Y-22.9
X13.828Y30.213
X17.938Y13.723
X19.187Y29.385
X19.264Y-46.201
X22.058Y-2.777
X23.297Y12.895
X24.564Y-45.053
X26.168Y-19.267
X27.417Y-3.605
X29.838Y40.393
X31.527Y-20.095
X33.958Y23.903
X35.197Y39.565
X36.877Y-36.885
X38.068Y7.403
X39.317Y23.075
X42.178Y-9.097
X42.295Y-37.101
X43.427Y6.575
X46.338Y48.633
X47.537Y-9.925
X50.448Y32.133
X51.697Y47.805
X54.568Y15.643
X55.727Y-31.264
X55.807Y31.305
X58.678Y-0.857
X59.927Y14.815
X60.83Y-33.099
X64.037Y-1.685
X64.778Y49.103
X68.888Y32.603
X70.137Y48.275
X72.998Y16.113
X74.247Y31.775
X77.108Y-0.387
X78.357Y15.285
X82.467Y-1.215
X85.138Y41.813
X85.578Y-34.347
X89.258Y25.323
X90.497Y40.985
X90.937Y-35.175
X93.368Y8.823
X94.617Y24.495
X97.478Y-7.667
X98.727Y7.995
X102.078Y-26.107
X102.837Y-8.495
X104.058Y40.343
X107.437Y-26.935
X108.168Y23.853
X109.417Y39.515
X112.288Y7.353
X113.527Y23.025
X116.398Y-9.137
X117.647Y6.525
X121.217Y-32.74
X121.757Y-9.965
X126.352Y-34.486
X132.977Y26.1
X134.167Y9.14
X137.707Y-10.53
X138.112Y24.354
X138.897Y-27.49
X139.302Y7.394
X142.842Y-12.276
X144.032Y-29.236
X150.937Y27.36
X152.117Y10.4
X156.072Y25.614
X157.137Y-30.22
X157.252Y8.654
X162.272Y-31.966
X163.241Y-48.154
X168.508Y-49.446
X171.976Y39.728
X172.576Y22.738
X173.166Y5.748
X173.756Y-11.242
X177.046Y37.804
X177.646Y20.814
X178.236Y3.824
X178.826Y-13.166
X189.826Y44.358
X190.426Y27.368
X191.016Y10.378
X191.606Y-6.612
X192.206Y-23.602
X194.896Y42.434
X195.496Y25.444
X196.086Y8.454
X196.676Y-8.536
X197.276Y-25.526
X207.956Y40.988
X208.546Y23.998
X209.146Y7.008
X209.736Y-9.982
X210.326Y-26.972
X213.026Y39.064
X213.616Y22.074
X214.216Y5.084
X214.806Y-11.906
X215.396Y-28.896
X226.366Y29.618
X226.956Y12.628
X227.556Y-4.362
X228.146Y-21.352
X228.736Y-38.342
X231.436Y27.694
X232.026Y10.704
X232.626Y-6.286
X233.216Y-23.276
X233.806Y-40.266
T6
X-130.05Y49.587
X-127.55Y49.587
X-125.05Y49.587
T7
X-127.5Y42.9
X-127.5Y-47.5
X-71.0Y-7.6
X0.0Y-29.8
X10.34Y64.13
X71.0Y-7.6
X155.0Y0.0
X234.46Y48.42
X234.5Y-47.5
T8
X-133.15Y57.087
X-121.95Y57.087
T9
X-129.777Y-19.409
X-125.667Y-2.909
X-121.557Y13.581
X-119.103Y-22.071
X-117.437Y30.081
X-114.993Y-5.571
X-113.327Y46.571
X-111.347Y-19.879
X-110.883Y10.919
X-106.763Y27.419
X-106.747Y-1.439
X-102.653Y43.909
X-102.637Y15.051
X-100.673Y-22.541
X-98.527Y31.551
X-96.073Y-4.101
X-94.847Y-28.119
X-94.407Y48.041
X-91.963Y12.389
X-87.853Y28.889
X-86.377Y5.841
X-84.173Y-30.781
X-83.733Y45.379
X-82.267Y22.341
X-78.157Y38.831
X-75.703Y3.179
X-74.047Y55.331
X-71.593Y19.679
X-67.947Y5.371
X-67.483Y36.169
X-65.531Y-26.735
X-63.837Y21.871
X-63.373Y52.669
X-59.717Y38.361
X-57.273Y2.709
X-55.607Y54.861
X-54.546Y-27.311
X-53.163Y19.209
X-51.447Y-2.869
X-49.043Y35.699
X-47.337Y13.631
X-44.933Y52.199
X-44.885Y-29.421
X-43.227Y30.131
X-40.773Y-5.531
X-39.107Y46.621
X-36.663Y10.969
X-35.437Y-13.039
X-34.582Y-33.273
X-32.553Y27.469
X-31.327Y3.451
X-28.433Y43.959
X-27.207Y19.951
X-25.685Y-37.061
X-24.763Y-15.701
X-23.097Y36.441
X-20.653Y0.789
X-16.675Y-43.37
X-16.533Y17.289
X-14.5Y-17.0
X-12.423Y33.779
X-5.5Y0.0
X-3.5Y-17.0
X3.5Y-17.0
X5.5Y0.0
X12.423Y33.779
X14.5Y-17.0
X16.533Y17.289
X16.675Y-43.375
X20.653Y0.789
X23.097Y36.441
X24.763Y-15.701
X25.685Y-37.065
X27.207Y19.951
X28.433Y43.959
X31.327Y3.451
X32.553Y27.469
X35.077Y-33.5
X35.437Y-13.039
X36.663Y10.969
X39.107Y46.621
X40.773Y-5.531
X43.227Y30.131
X44.933Y52.199
X45.381Y-29.648
X47.337Y13.631
X49.043Y35.699
X51.447Y-2.869
X53.163Y19.209
X55.029Y-27.495
X55.607Y54.861
X57.273Y2.709
X59.717Y38.361
X63.373Y52.669
X63.837Y21.871
X66.014Y-26.92
X67.483Y36.169
X67.947Y5.371
X71.593Y19.679
X74.047Y55.331
X75.703Y3.179
X78.157Y38.831
X82.267Y22.341
X83.733Y45.379
X84.173Y-30.781
X86.377Y5.841
X87.853Y28.889
X91.963Y12.389
X94.407Y48.041
X94.847Y-28.119
X96.073Y-4.101
X98.527Y31.551
X100.673Y-22.541
X102.637Y15.051
X102.653Y43.909
X106.747Y-1.439
X106.763Y27.419
X110.883Y10.919
X111.347Y-19.879
X113.327Y46.571
X114.993Y-5.571
X117.437Y30.081
X120.453Y-28.984
X121.557Y13.581
X125.667Y-2.909
X131.427Y-28.216
X132.213Y29.856
X133.403Y12.896
X136.943Y-6.774
X138.133Y-23.734
X143.187Y30.624
X144.377Y13.664
X147.917Y-6.006
X149.107Y-22.966
X150.173Y31.116
X151.353Y14.156
X156.373Y-26.464
X161.147Y31.884
X162.153Y-44.479
X162.327Y14.924
X167.347Y-25.696
X171.343Y43.508
X171.943Y26.518
X172.533Y9.528
X173.018Y-42.758
X173.123Y-7.462
X182.337Y43.892
X182.937Y26.902
X183.527Y9.912
X184.117Y-7.078
X189.193Y48.138
X189.793Y31.148
X190.383Y14.158
X190.973Y-2.832
X191.573Y-19.822
X200.187Y48.522
X200.787Y31.532
X201.377Y14.542
X201.967Y-2.448
X202.567Y-19.438
X207.323Y44.768
X207.913Y27.778
X208.513Y10.788
X209.103Y-6.202
X209.693Y-23.192
X218.317Y45.152
X218.907Y28.162
X219.507Y11.172
X220.097Y-5.818
X220.687Y-22.808
X225.733Y33.398
X226.323Y16.408
X226.923Y-0.582
X227.513Y-17.572
X228.103Y-34.562
X236.727Y33.782
X237.317Y16.792
X237.917Y-0.198
X238.507Y-17.188
X239.097Y-34.178
T10
X-124.44Y-20.74
X-120.33Y-4.24
X-116.22Y12.25
X-112.1Y28.75
X-107.99Y45.24
X-106.01Y-21.21
X-101.41Y-2.77
X-97.3Y13.72
X-93.19Y30.22
X-89.51Y-29.45
X-89.07Y46.71
X-81.04Y4.51
X-76.93Y21.01
X-72.82Y37.5
X-68.71Y54.0
X-62.61Y4.04
X-60.038Y-27.023
X-58.5Y20.54
X-54.38Y37.03
X-50.27Y53.53
X-46.11Y-4.2
X-42.0Y12.3
X-39.734Y-31.347
X-37.89Y28.8
X-33.77Y45.29
X-30.1Y-14.37
X-25.99Y2.12
X-21.87Y18.62
X-21.18Y-40.215
X-17.76Y35.11
X-9.0Y-17.0
X0.0Y0.0
X9.0Y-17.0
X17.76Y35.11
X21.18Y-40.22
X21.87Y18.62
X25.99Y2.12
X30.1Y-14.37
X33.77Y45.29
X37.89Y28.8
X40.229Y-31.574
X42.0Y12.3
X46.11Y-4.2
X50.27Y53.53
X54.38Y37.03
X58.5Y20.54
X60.522Y-27.207
X62.61Y4.04
X68.71Y54.0
X72.82Y37.5
X76.93Y21.01
X81.04Y4.51
X89.07Y46.71
X89.51Y-29.45
X93.19Y30.22
X97.3Y13.72
X101.41Y-2.77
X106.01Y-21.21
X107.99Y45.24
X112.1Y28.75
X116.22Y12.25
X120.33Y-4.24
X125.94Y-28.6
X137.7Y30.24
X138.89Y13.28
X142.43Y-6.39
X143.62Y-23.35
X155.66Y31.5
X156.84Y14.54
X161.86Y-26.08
X167.585Y-43.618
X176.84Y43.7
X177.44Y26.71
X178.03Y9.72
X178.62Y-7.27
X194.69Y48.33
X195.29Y31.34
X195.88Y14.35
X196.47Y-2.64
X197.07Y-19.63
X212.82Y44.96
X213.41Y27.97
X214.01Y10.98
X214.6Y-6.01
X215.19Y-23.0
X231.23Y33.59
X231.82Y16.6
X232.42Y-0.39
X233.01Y-17.38
X233.6Y-34.37
T2
X-3.38Y63.462G85X-3.38Y64.656
G05
X3.92Y63.462G85X3.92Y64.656
G05
M30
