M48
; DRILL file {KiCad 9.0.7} date 2026-05-16T20:37:03-0300
; FORMAT={-:-/ absolute / metric / decimal}
; #@! TF.CreationDate,2026-05-16T20:37:03-03:00
; #@! TF.GenerationSoftware,Kicad,Pcbnew,9.0.7
; #@! TF.FileFunction,Plated,1,2,PTH
FMAT,2
METRIC
; #@! TA.AperFunction,Plated,PTH,ViaDrill
T1C0.300
; #@! TA.AperFunction,Plated,PTH,ComponentDrill
T2C0.762
; #@! TA.AperFunction,Plated,PTH,ComponentDrill
T3C0.900
; #@! TA.AperFunction,Plated,PTH,ComponentDrill
T4C1.000
; #@! TA.AperFunction,Plated,PTH,ComponentDrill
T5C1.200
; #@! TA.AperFunction,Plated,PTH,ComponentDrill
T6C1.300
; #@! TA.AperFunction,Plated,PTH,ComponentDrill
T7C2.700
; #@! TA.AperFunction,Plated,PTH,ComponentDrill
T8C3.041
%
G90
G05
T1
X-85.9Y47.9
X-57.43Y65.42
X-46.3Y54.15
X-45.35Y-46.35
X-35.55Y25.3
X-32.9Y62.03
X-30.2Y41.0
X-29.0Y46.6
X-27.2Y63.4
X-15.9Y32.5
X-15.1Y7.85
X-15.1Y4.75
X-13.65Y7.55
X-13.65Y4.75
X-13.65Y-7.7
X-13.5Y-11.9
X-11.5Y10.25
X-10.2Y20.75
X-10.15Y19.6
X-9.05Y18.15
X-4.35Y10.0
X-4.2Y25.0
X-4.2Y22.55
X-3.1Y9.25
X-2.6Y-6.25
X-2.55Y23.55
X-2.4Y39.8
X-0.95Y24.45
X-0.65Y20.2
X0.75Y55.85
X1.4Y11.65
X2.65Y14.95
X3.0Y11.55
X3.1Y39.75
X3.25Y12.95
X4.12Y31.82
X4.16Y30.4
X4.2Y27.4
X4.25Y28.9
X4.5Y25.95
X4.6Y24.1
X4.9Y13.75
X6.5Y24.6
X6.9Y9.3
X8.3Y14.15
X8.3Y12.45
X8.45Y19.1
X8.84Y32.28
X8.85Y30.45
X8.85Y23.6
X8.9Y24.65
X11.25Y29.05
X11.3Y26.75
X12.5Y13.15
X15.23Y65.9
X16.15Y20.45
X16.45Y30.05
X20.7Y4.05
X21.15Y12.3
X22.75Y33.35
X23.55Y25.93
X24.8Y21.05
X28.8Y7.65
X30.55Y8.25
X41.6Y34.05
X58.95Y40.85
X120.53Y62.0
X121.8Y31.75
X123.95Y29.6
X126.55Y37.65
X129.25Y35.25
T2
X-1.33Y59.009
X-0.53Y60.209
X0.27Y59.009
X1.07Y60.209
X1.87Y59.009
T3
X127.27Y60.5
X129.81Y60.5
X140.485Y60.5
X143.025Y60.5
X153.7Y60.5
X156.24Y60.5
T4
X17.415Y57.5
X19.955Y57.5
X22.495Y57.5
X230.03Y63.75
X230.03Y57.25
X234.53Y63.75
X234.53Y57.25
T5
X-130.211Y-23.218
X-126.101Y-6.718
X-125.867Y-26.465
X-121.991Y9.772
X-121.757Y-9.965
X-117.871Y26.272
X-117.647Y6.525
X-113.761Y42.762
X-113.527Y23.025
X-111.781Y-23.688
X-109.417Y39.515
X-107.437Y-26.935
X-107.181Y-5.248
X-103.071Y11.242
X-102.837Y-8.495
X-98.961Y27.742
X-98.727Y7.995
X-95.281Y-31.928
X-94.841Y44.232
X-94.617Y24.495
X-90.937Y-35.175
X-90.497Y40.985
X-86.811Y2.032
X-82.701Y18.532
X-82.467Y-1.215
X-78.591Y35.022
X-78.357Y15.285
X-74.481Y51.522
X-74.247Y31.775
X-70.137Y48.275
X-68.381Y1.562
X-65.23Y-30.556
X-64.271Y18.062
X-64.037Y-1.685
X-60.347Y-32.915
X-60.151Y34.552
X-59.927Y14.815
X-56.041Y51.052
X-55.807Y31.305
X-51.881Y-6.678
X-51.697Y47.805
X-47.771Y9.822
X-47.537Y-9.925
X-45.748Y-33.155
X-43.661Y26.322
X-43.427Y6.575
X-41.8Y-36.873
X-39.541Y42.812
X-39.317Y23.075
X-35.871Y-16.848
X-35.197Y39.565
X-31.761Y-0.358
X-31.527Y-20.095
X-27.641Y16.142
X-27.455Y-40.46
X-27.417Y-3.605
X-24.564Y-45.048
X-23.531Y32.632
X-23.297Y12.895
X-19.187Y29.385
X-14.0Y-20.8
X-9.0Y-22.9
X-5.0Y-3.8
X0.0Y-5.9
X4.0Y-20.8
X9.0Y-22.9
X13.828Y30.213
X17.938Y13.723
X19.187Y29.385
X19.264Y-46.201
X22.058Y-2.777
X23.297Y12.895
X24.564Y-45.053
X26.168Y-19.267
X27.417Y-3.605
X29.838Y40.393
X31.527Y-20.095
X33.958Y23.903
X35.197Y39.565
X36.877Y-36.885
X38.068Y7.403
X39.317Y23.075
X42.178Y-9.097
X42.295Y-37.101
X43.427Y6.575
X46.338Y48.633
X47.537Y-9.925
X50.448Y32.133
X51.697Y47.805
X54.568Y15.643
X55.727Y-31.264
X55.807Y31.305
X58.678Y-0.857
X59.927Y14.815
X60.83Y-33.099
X64.037Y-1.685
X64.778Y49.103
X68.888Y32.603
X70.137Y48.275
X72.998Y16.113
X74.247Y31.775
X77.108Y-0.387
X78.357Y15.285
X82.467Y-1.215
X85.138Y41.813
X85.578Y-34.347
X89.258Y25.323
X90.497Y40.985
X90.937Y-35.175
X93.368Y8.823
X94.617Y24.495
X97.478Y-7.667
X98.727Y7.995
X102.078Y-26.107
X102.837Y-8.495
X104.058Y40.343
X107.437Y-26.935
X108.168Y23.853
X109.417Y39.515
X112.288Y7.353
X113.527Y23.025
X116.398Y-9.137
X117.647Y6.525
X121.217Y-32.74
X121.757Y-9.965
X126.352Y-34.486
X132.977Y26.1
X134.167Y9.14
X137.707Y-10.53
X138.112Y24.354
X138.897Y-27.49
X139.302Y7.394
X142.842Y-12.276
X144.032Y-29.236
X150.937Y27.36
X152.117Y10.4
X156.072Y25.614
X157.137Y-30.22
X157.252Y8.654
X162.272Y-31.966
X163.241Y-48.154
X168.508Y-49.446
X171.976Y39.728
X172.576Y22.738
X173.166Y5.748
X173.756Y-11.242
X177.046Y37.804
X177.646Y20.814
X178.236Y3.824
X178.826Y-13.166
X189.826Y44.358
X190.426Y27.368
X191.016Y10.378
X191.606Y-6.612
X192.206Y-23.602
X194.896Y42.434
X195.496Y25.444
X196.086Y8.454
X196.676Y-8.536
X197.276Y-25.526
X207.956Y40.988
X208.546Y23.998
X209.146Y7.008
X209.736Y-9.982
X210.326Y-26.972
X213.026Y39.064
X213.616Y22.074
X214.216Y5.084
X214.806Y-11.906
X215.396Y-28.896
X226.366Y29.618
X226.956Y12.628
X227.556Y-4.362
X228.146Y-21.352
X228.736Y-38.342
X231.436Y27.694
X232.026Y10.704
X232.626Y-6.286
X233.216Y-23.276
X233.806Y-40.266
T6
X-130.05Y49.587
X-127.55Y49.587
X-125.05Y49.587
T7
X-127.5Y42.9
X-127.5Y-47.5
X-71.0Y-7.6
X0.0Y-29.8
X10.34Y64.13
X71.0Y-7.6
X155.0Y0.0
X234.46Y48.42
X234.5Y-47.5
T8
X-133.15Y57.087
X-121.95Y57.087
T2
X-3.38Y63.462G85X-3.38Y64.656
G05
X3.92Y63.462G85X3.92Y64.656
G05
M30
