<?xml version="1.0" encoding="UTF-8" standalone="no"?>
<svg
   width="1.4566929in"
   height="0.47289374in"
   version="1.1"
   id="svg4"
   sodipodi:docname="Citrouille90 waveform for logo - just the wave.svg"
   inkscape:version="1.1.1 (3bf5ae0d25, 2021-09-20)"
   xmlns:inkscape="http://www.inkscape.org/namespaces/inkscape"
   xmlns:sodipodi="http://sodipodi.sourceforge.net/DTD/sodipodi-0.dtd"
   xmlns="http://www.w3.org/2000/svg"
   xmlns:svg="http://www.w3.org/2000/svg">
  <defs
     id="defs8" />
  <sodipodi:namedview
     id="namedview6"
     pagecolor="#ffffff"
     bordercolor="#666666"
     borderopacity="1.0"
     inkscape:pageshadow="2"
     inkscape:pageopacity="0.0"
     inkscape:pagecheckerboard="0"
     showgrid="false"
     inkscape:zoom="1.4522059"
     inkscape:cx="491.32151"
     inkscape:cy="180.07088"
     inkscape:window-width="2560"
     inkscape:window-height="1369"
     inkscape:window-x="2552"
     inkscape:window-y="-8"
     inkscape:window-maximized="1"
     inkscape:current-layer="svg4"
     units="in"
     inkscape:document-units="in"
     inkscape:showpageshadow="2"
     inkscape:deskcolor="#d1d1d1" />
  <path
     d="m 0.4958955,24.34199 c 1.870121,0.456719 2.337651,0.632968 2.804983,0.804208 0.467531,0.171478 0.935061,0.366568 1.402591,0.546394 0.46753,0.179826 0.935061,0.370623 1.402591,0.53304 0.46753,0.162415 0.93506,0.322207 1.402591,0.441456 0.467332,0.119485 0.934862,0.222039 1.402392,0.274985 0.46753,0.05271 0.93506,0.07537 1.4025915,0.04221 0.467531,-0.03291 0.93506,-0.108037 1.402591,-0.241118 0.46753,-0.132843 0.934862,-0.316723 1.402393,-0.556412 0.467529,-0.23945 0.93506,-0.535661 1.402591,-0.880527 0.467529,-0.345104 0.93506,-0.748162 1.40259,-1.189142 0.467531,-0.440741 0.93506,-0.937051 1.402392,-1.456018 0.467531,-0.518968 0.935061,-1.085873 1.402591,-1.657786 0.46753,-0.571914 0.935061,-1.180079 1.40259,-1.773456 0.467531,-0.593379 0.935061,-1.207745 1.402592,-1.786336 0.467531,-0.57883 0.934861,-1.160284 1.402392,-1.685928 0.467531,-0.525645 0.93506,-1.03412 1.402591,-1.468182 0.46753,-0.434065 0.935061,-0.829968 1.40259,-1.136434 0.467531,-0.306229 0.935061,-0.554266 1.402393,-0.701179 0.46753,-0.147153 0.93506,-0.217508 1.402591,-0.181018 0.467529,0.03673 0.93506,0.165038 1.402591,0.400912 0.46753,0.235872 0.935061,0.574298 1.40259,1.014799 0.467332,0.440265 0.934863,0.988807 1.402392,1.627738 0.467531,0.63893 0.935061,1.3859 1.402592,2.20585 0.467529,0.820188 0.93506,1.741736 1.40259,2.714322 0.46753,0.972588 0.934862,2.03461 1.402392,3.121199 0.467531,1.086588 0.935062,2.244725 1.402591,3.39833 0.467531,1.153606 0.935061,2.355864 1.402592,3.52354 0.467529,1.167677 0.93506,2.357295 1.402589,3.48252 0.467332,1.125224 0.934863,2.243055 1.402393,3.26835 0.467531,1.025533 0.93506,2.013384 1.402591,2.884132 0.46753,0.870987 0.935061,1.674481 1.402591,2.341793 0.46753,0.667073 0.934862,1.238987 1.402393,1.661364 0.467529,0.422375 0.93506,0.725505 1.40259,0.872656 0.467531,0.147152 0.93506,0.156216 1.402591,0.01026 0.467529,-0.145722 0.93506,-0.44265 1.402392,-0.885536 0.46753,-0.44265 0.935061,-1.041991 1.40259,-1.771311 0.467531,-0.729082 0.935062,-1.612948 1.402592,-2.603661 0.46753,-0.990713 0.93506,-2.126669 1.402591,-3.340615 0.467332,-1.213944 0.934861,-2.5562 1.402392,-3.943531 0.46753,-1.387332 0.935061,-2.879363 1.40259,-4.380695 0.467531,-1.501333 0.935061,-3.077793 1.402591,-4.627063 0.467531,-1.54927 0.935061,-3.140277 1.402393,-4.667844 0.467531,-1.527806 0.93506,-3.061335 1.402591,-4.497799 0.467531,-1.436461 0.935061,-2.842156 1.402591,-4.1214498 0.46753,-1.279531 0.93506,-2.492045 1.40259,-3.555022 0.46733,-1.062977 0.93486,-2.026024 1.40239,-2.823077 0.46753,-0.797054 0.93506,-1.46532 1.40259,-1.959007 0.46753,-0.493687 0.93506,-0.83592803 1.40259,-1.00311403 0.46753,-0.167186 0.93487,-0.167186 1.4024,0 0.46753,0.167186 0.93506,0.50942703 1.40259,1.00311403 0.46753,0.493687 0.93506,1.161953 1.40259,1.959007 0.46753,0.797053 0.93506,1.7601 1.40239,2.823077 0.46753,1.062977 0.93506,2.275491 1.40259,3.555022 0.46753,1.2792938 0.93506,2.6849888 1.40259,4.1214498 0.46753,1.436464 0.93506,2.969993 1.40259,4.497799 0.46733,1.527567 0.93487,3.118574 1.40239,4.667844 0.46754,1.54927 0.93507,3.12573 1.4026,4.627063 0.46753,1.501332 0.93506,2.993363 1.40259,4.380695 0.46753,1.387331 0.93506,2.729587 1.40239,3.943531 0.46753,1.213946 0.93506,2.349902 1.40259,3.340615 0.46753,0.990713 0.93506,1.874579 1.40259,2.603661 0.46753,0.72932 0.93506,1.328661 1.40259,1.771311 0.46733,0.442886 0.93486,0.739814 1.40239,0.885536 0.46753,0.145959 0.93506,0.136896 1.40259,-0.01026 0.46754,-0.147151 0.93506,-0.450281 1.4026,-0.872656 0.46753,-0.422377 0.93486,-0.994291 1.40239,-1.661364 0.46753,-0.667312 0.93506,-1.470806 1.40259,-2.341793 0.46753,-0.870748 0.93506,-1.858599 1.40259,-2.884132 0.46753,-1.025295 0.93506,-2.143126 1.40239,-3.26835 0.46753,-1.125225 0.93506,-2.314843 1.402587,-3.48252 0.46753,-1.167676 0.93506,-2.369934 1.40259,-3.52354 0.46753,-1.153605 0.93506,-2.311742 1.40259,-3.39833 0.46753,-1.086589 0.93487,-2.148611 1.4024,-3.121199 0.46753,-0.972586 0.93506,-1.894134 1.40259,-2.714322 0.46753,-0.81995 0.93506,-1.56692 1.40259,-2.20585 0.46753,-0.638931 0.93506,-1.187473 1.40239,-1.627738 0.46753,-0.440501 0.93506,-0.778927 1.40259,-1.014799 0.46753,-0.235874 0.93506,-0.364185 1.40259,-0.400912 0.46753,-0.03649 0.93506,0.03386 1.40259,0.181018 0.46733,0.146913 0.93486,0.39495 1.40239,0.701179 0.46753,0.306466 0.93507,0.702369 1.4026,1.136434 0.46753,0.434062 0.93506,0.942537 1.40259,1.468182 0.46753,0.525644 0.93486,1.107098 1.40239,1.685928 0.46753,0.578591 0.93506,1.192957 1.40259,1.786336 0.46753,0.593377 0.93506,1.201542 1.40259,1.773456 0.46753,0.571913 0.93506,1.138818 1.40259,1.657786 0.46733,0.518967 0.93486,1.015277 1.40239,1.456018 0.46753,0.44098 0.93506,0.844038 1.40259,1.189142 0.46753,0.344866 0.93507,0.641077 1.40259,0.880527 0.46754,0.239689 0.93487,0.423569 1.4024,0.556412 0.46753,0.133081 0.93506,0.208206 1.40259,0.241118 0.46753,0.03315 0.93506,0.01049 1.40259,-0.04221 0.46753,-0.05295 0.93506,-0.1555 1.40239,-0.274985 0.46753,-0.119249 0.93506,-0.279041 1.40259,-0.441456 0.46753,-0.162417 0.93506,-0.353214 1.40259,-0.53304 0.46753,-0.179826 0.93506,-0.374916 1.40259,-0.546394 0.46733,-0.17124 0.93487,-0.347489 1.40239,-0.481523 0.46754,-0.134035 1.16894,-0.269025 1.40259,-0.322685"
     fill="none"
     stroke="#000000"
     stroke-width="2"
     id="path2"
     style="stroke:#d45500;stroke-width:0.991791;stroke-linecap:round;stroke-miterlimit:4;stroke-dasharray:none" />
</svg>
