<?xml version="1.0" encoding="UTF-8" standalone="no"?>
<svg
   width="11in"
   height="8.5in"
   version="1.1"
   id="svg4"
   sodipodi:docname="Citrouille90 waveform for logo - just the wave.svg"
   inkscape:version="1.4.3 (0d15f75042, 2025-12-25)"
   xmlns:inkscape="http://www.inkscape.org/namespaces/inkscape"
   xmlns:sodipodi="http://sodipodi.sourceforge.net/DTD/sodipodi-0.dtd"
   xmlns="http://www.w3.org/2000/svg"
   xmlns:svg="http://www.w3.org/2000/svg">
  <defs
     id="defs8" />
  <sodipodi:namedview
     id="namedview6"
     pagecolor="#ffffff"
     bordercolor="#666666"
     borderopacity="1.0"
     inkscape:pageshadow="2"
     inkscape:pageopacity="0.0"
     inkscape:pagecheckerboard="0"
     showgrid="false"
     inkscape:zoom="1.4522059"
     inkscape:cx="528.16202"
     inkscape:cy="217.9443"
     inkscape:window-width="1920"
     inkscape:window-height="1029"
     inkscape:window-x="0"
     inkscape:window-y="27"
     inkscape:window-maximized="1"
     inkscape:current-layer="svg4"
     units="in"
     inkscape:document-units="in"
     inkscape:showpageshadow="2"
     inkscape:deskcolor="#d1d1d1" />
  <path
     d="m 40.955408,208.23062 c 13.067742,3.19139 16.334677,4.42296 19.600227,5.61952 3.266935,1.19823 6.533871,2.56145 9.800806,3.81801 3.266935,1.25656 6.533871,2.58978 9.800806,3.72469 3.266936,1.1349 6.533871,2.25147 9.800806,3.08474 3.26555,0.83492 6.532485,1.55153 9.799421,1.9215 3.266936,0.3683 6.533866,0.52662 9.800806,0.29497 3.26694,-0.22998 6.53387,-0.75493 9.80081,-1.68485 3.26693,-0.92826 6.53248,-2.21315 9.79942,-3.88801 3.26693,-1.67319 6.53387,-3.74301 9.80081,-6.15281 3.26693,-2.41146 6.53387,-5.22789 9.8008,-8.3093 3.26694,-3.07974 6.53387,-6.54778 9.79942,-10.17414 3.26694,-3.62636 6.53387,-7.58769 9.80081,-11.58402 3.26693,-3.99633 6.53387,-8.24597 9.8008,-12.39228 3.26694,-4.14632 6.53387,-8.43929 9.80081,-12.48228 3.26694,-4.04466 6.53248,-8.10765 9.79942,-11.78067 3.26694,-3.67302 6.53387,-7.22606 9.80081,-10.25913 3.26693,-3.03309 6.53387,-5.79952 9.8008,-7.941 3.26694,-2.13982 6.53387,-3.87301 9.79942,-4.89959 3.26694,-1.02825 6.53387,-1.51987 9.80081,-1.26489 3.26693,0.25664 6.53387,1.15323 9.80081,2.80143 3.26693,1.64819 6.53387,4.01299 9.8008,7.09106 3.26555,3.07641 6.53249,6.90943 9.79942,11.37405 3.26694,4.46462 6.53387,9.68418 9.80081,15.4137 3.26693,5.73118 6.53387,12.17063 9.8008,18.96672 3.26694,6.7961 6.53249,14.21713 9.79942,21.80983 3.26694,7.59269 6.53388,15.68534 9.80081,23.74632 3.26694,8.06099 6.53387,16.46194 9.80081,24.62125 3.26693,8.15931 6.53387,16.47194 9.8008,24.33461 3.26555,7.86267 6.53249,15.67367 9.79942,22.83807 3.26694,7.16606 6.53387,14.06881 9.80081,20.15329 3.26693,6.08615 6.53387,11.70068 9.80081,16.36362 3.26693,4.66127 6.53248,8.6576 9.79942,11.60902 3.26693,2.95141 6.53387,5.06957 9.8008,6.09781 3.26694,1.02825 6.53387,1.09158 9.80081,0.0717 3.26693,-1.01825 6.53387,-3.09308 9.79942,-6.18781 3.26693,-3.09308 6.53387,-7.28106 9.8008,-12.37729 3.26694,-5.09457 6.53388,-11.27071 9.80081,-18.19346 3.26694,-6.92275 6.53387,-14.86041 9.80081,-23.34303 3.26555,-8.48261 6.53248,-17.86182 9.79942,-27.556 3.26693,-9.69418 6.53387,-20.11996 9.8008,-30.61074 3.26694,-10.49078 6.53387,-21.50652 9.80081,-32.33227 3.26694,-10.82575 6.53387,-21.94314 9.79942,-32.61724 3.26694,-10.67576 6.53387,-21.39152 9.80081,-31.42902 3.26693,-10.03748 6.53387,-19.85998 9.8008,-28.79923 3.26694,-8.940906 6.53387,-17.413523 9.80081,-24.841228 3.26555,-7.427705 6.53248,-14.157136 9.79942,-19.726665 3.26693,-5.569528 6.53387,-10.239133 9.8008,-13.688842 3.26694,-3.449708 6.53388,-5.841172 9.80081,-7.009407 3.26694,-1.168234 6.53249,-1.168234 9.79942,0 3.26694,1.168235 6.53387,3.559699 9.80081,7.009407 3.26693,3.449709 6.53387,8.119314 9.8008,13.688842 3.26694,5.569529 6.53387,12.29896 9.79942,19.726665 3.26694,7.427705 6.53387,15.900322 9.80081,24.841228 3.26694,8.93925 6.53387,18.76175 9.80081,28.79923 3.26693,10.0375 6.53387,20.75326 9.8008,31.42902 3.26555,10.6741 6.53249,21.79149 9.79942,32.61724 3.26694,10.82575 6.53387,21.84149 9.80081,32.33227 3.26693,10.49078 6.53387,20.91656 9.80081,30.61074 3.26693,9.69418 6.53387,19.07339 9.79942,27.556 3.26693,8.48262 6.53387,16.42028 9.8008,23.34303 3.26694,6.92275 6.53387,13.09889 9.80081,18.19346 3.26693,5.09623 6.53387,9.28421 9.8008,12.37729 3.26555,3.09473 6.53249,5.16956 9.79942,6.18781 3.26694,1.01991 6.53387,0.95658 9.80081,-0.0717 3.26694,-1.02824 6.53387,-3.1464 9.80081,-6.09781 3.26693,-2.95142 6.53248,-6.94775 9.79942,-11.60902 3.26693,-4.66294 6.53387,-10.27747 9.8008,-16.36362 3.26694,-6.08448 6.53387,-12.98723 9.80081,-20.15329 3.26693,-7.1644 6.53387,-14.9754 9.79942,-22.83807 3.26693,-7.86267 6.53387,-16.1753 9.80081,-24.33461 3.26693,-8.15931 6.53387,-16.56026 9.8008,-24.62125 3.26694,-8.06098 6.53387,-16.15363 9.80081,-23.74632 3.26693,-7.5927 6.53248,-15.01373 9.79942,-21.80983 3.26693,-6.79609 6.53387,-13.23554 9.8008,-18.96672 3.26694,-5.72952 6.53388,-10.94908 9.80081,-15.4137 3.26694,-4.46462 6.53387,-8.29764 9.79942,-11.37405 3.26694,-3.07807 6.53387,-5.44287 9.80081,-7.09106 3.26693,-1.6482 6.53387,-2.54479 9.8008,-2.80143 3.26694,-0.25498 6.53387,0.23664 9.80081,1.26489 3.26555,1.02658 6.53248,2.75977 9.79942,4.89959 3.26693,2.14148 6.53387,4.90791 9.80081,7.941 3.26693,3.03307 6.53387,6.58611 9.8008,10.25913 3.26694,3.67302 6.53249,7.73601 9.79942,11.78067 3.26694,4.04299 6.53387,8.33596 9.80081,12.48228 3.26693,4.14631 6.53387,8.39595 9.8008,12.39228 3.26694,3.99633 6.53388,7.95766 9.80081,11.58402 3.26555,3.62636 6.53249,7.0944 9.79942,10.17414 3.26694,3.08141 6.53387,5.89784 9.80081,8.3093 3.26693,2.4098 6.53387,4.47962 9.8008,6.15281 3.26694,1.67486 6.53249,2.95975 9.79942,3.88801 3.26694,0.92992 6.53387,1.45487 9.80081,1.68485 3.26694,0.23165 6.53387,0.0733 9.80081,-0.29497 3.26693,-0.36997 6.53387,-1.08658 9.79942,-1.9215 3.26693,-0.83327 6.53387,-1.94984 9.8008,-3.08474 3.26694,-1.13491 6.53387,-2.46813 9.80081,-3.72469 3.26693,-1.25656 6.53387,-2.61978 9.8008,-3.81801 3.26555,-1.19656 6.53249,-2.42813 9.7994,-3.36471 3.267,-0.93659 8.1681,-1.87985 9.8008,-2.25481"
     fill="none"
     stroke="#000000"
     stroke-width="2"
     id="path2"
     style="stroke:#d45500;stroke-width:6.93028;stroke-linecap:round;stroke-miterlimit:4;stroke-dasharray:none" />
</svg>
