<?xml version="1.0" encoding="UTF-8" standalone="no"?>
<svg
   width="11in"
   height="8.5in"
   version="1.1"
   id="svg4"
   sodipodi:docname="dampened sinusoidal curve.svg"
   inkscape:version="1.1.1 (3bf5ae0d25, 2021-09-20)"
   xmlns:inkscape="http://www.inkscape.org/namespaces/inkscape"
   xmlns:sodipodi="http://sodipodi.sourceforge.net/DTD/sodipodi-0.dtd"
   xmlns="http://www.w3.org/2000/svg"
   xmlns:svg="http://www.w3.org/2000/svg">
  <defs
     id="defs8" />
  <sodipodi:namedview
     id="namedview6"
     pagecolor="#ffffff"
     bordercolor="#666666"
     borderopacity="1.0"
     inkscape:pageshadow="2"
     inkscape:pageopacity="0.0"
     inkscape:pagecheckerboard="0"
     showgrid="false"
     inkscape:zoom="1.4522059"
     inkscape:cx="527.81772"
     inkscape:cy="408"
     inkscape:window-width="2560"
     inkscape:window-height="1369"
     inkscape:window-x="-8"
     inkscape:window-y="-8"
     inkscape:window-maximized="1"
     inkscape:current-layer="svg4"
     units="in"
     inkscape:document-units="in" />
  <g
     id="g9762"
     transform="matrix(1.3860566,0,0,1.3860566,-23.194795,29.114167)">
    <text
       xml:space="preserve"
       style="font-size:64px;line-height:1.25;font-family:'Comic Sans MS';-inkscape-font-specification:'Comic Sans MS';font-variant-ligatures:none;fill:#d45500"
       x="355.16"
       y="236.43121"
       id="text3277"><tspan
         sodipodi:role="line"
         id="tspan3275"
         x="355.16"
         y="236.43121"
         style="font-style:normal;font-variant:normal;font-weight:normal;font-stretch:normal;font-size:64px;font-family:'Playpen Sans';-inkscape-font-specification:'Playpen Sans';fill:#d45500">90</tspan></text>
    <g
       id="g9619"
       transform="matrix(1,0,0,1.2023504,0,-1.8206351)"
       style="stroke:#d45500;stroke-width:0.911978">
      <path
         d="m 46.282528,108.99319 c 9.428,1.915 11.785,2.654 14.141,3.372 2.357,0.719 4.714,1.537 7.071,2.291 2.357,0.754 4.714,1.554 7.071,2.235 2.357,0.681 4.714,1.351 7.071,1.851 2.356,0.501 4.713,0.931 7.07,1.153 2.357,0.221 4.714,0.316 7.071,0.177 2.357,-0.138 4.714002,-0.453 7.071002,-1.011 2.357,-0.557 4.713,-1.328 7.07,-2.333 2.357,-1.004 4.714,-2.246 7.071,-3.692 2.357,-1.447 4.714,-3.137 7.071,-4.986 2.357,-1.848 4.714,-3.929 7.07,-6.105 2.357,-2.176 4.714,-4.553 7.071,-6.951 2.357,-2.398 4.714,-4.948 7.071,-7.436 2.357,-2.488 4.714,-5.064 7.071,-7.49 2.357,-2.427 4.713,-4.865 7.07,-7.069 2.357,-2.204 4.714,-4.336 7.071,-6.156 2.357,-1.820004 4.714,-3.480004 7.071,-4.765004 2.357,-1.284 4.714,-2.324 7.07,-2.94 2.357,-0.617 4.714,-0.912 7.071,-0.759 2.357,0.154 4.714,0.692 7.071,1.681 2.357,0.989 4.714,2.408 7.071,4.255 2.356,1.846 4.713,4.146004 7.07,6.825004 2.357,2.679 4.714,5.811 7.071,9.249 2.357,3.439 4.714,7.303 7.071,11.381 2.357,4.078 4.713,8.531 7.07,13.087 2.357,4.556 4.714,9.412 7.071,14.249 2.357,4.837 4.714,9.878 7.071,14.774 2.357,4.896 4.714,9.884 7.071,14.602 2.356,4.718 4.713,9.405 7.07,13.704 2.357,4.3 4.714,8.442 7.071,12.093 2.357,3.652 4.714,7.021 7.071,9.819 2.357,2.797 4.713,5.195 7.07,6.966 2.357,1.771 4.714,3.042 7.071,3.659 2.357,0.617 4.714,0.655 7.071,0.043 2.357,-0.611 4.714,-1.856 7.07,-3.713 2.357,-1.856 4.714,-4.369 7.071,-7.427 2.357,-3.057 4.714,-6.763 7.071,-10.917 2.357,-4.154 4.714,-8.917 7.071,-14.007 2.356,-5.09 4.713,-10.718 7.07,-16.535 2.357,-5.817 4.714,-12.073 7.071,-18.368 2.357,-6.295 4.714,-12.905 7.071,-19.401 2.357,-6.496 4.714,-13.167 7.07,-19.572 2.357,-6.406 4.714,-12.836 7.071,-18.859004 2.357,-6.023 4.714,-11.917 7.071,-17.281 2.357,-5.365 4.714,-10.449 7.071,-14.906 2.356,-4.457 4.713,-8.495 7.07,-11.837 2.357,-3.342 4.714,-6.144 7.071,-8.214 2.357,-2.07 4.714,-3.505 7.071,-4.206 2.357,-0.701 4.713,-0.701 7.07,0 2.357,0.701 4.714,2.136 7.071,4.206 2.357,2.07 4.714,4.872 7.071,8.214 2.357,3.342 4.714,7.38 7.07,11.837 2.357,4.457 4.714,9.541 7.071,14.906 2.357,5.364 4.714,11.258 7.071,17.281 2.357,6.023004 4.714,12.453004 7.071,18.859004 2.356,6.405 4.713,13.076 7.07,19.572 2.357,6.496 4.714,13.106 7.071,19.401 2.357,6.295 4.714,12.551 7.071,18.368 2.357,5.817 4.714,11.445 7.07,16.535 2.357,5.09 4.714,9.853 7.071,14.007 2.357,4.154 4.714,7.86 7.071,10.917 2.357,3.058 4.714,5.571 7.071,7.427 2.356,1.857 4.713,3.102 7.07,3.713 2.357,0.612 4.714,0.574 7.071,-0.043 2.357,-0.617 4.714,-1.888 7.071,-3.659 2.357,-1.771 4.713,-4.169 7.07,-6.966 2.357,-2.798 4.714,-6.167 7.071,-9.819 2.357,-3.651 4.714,-7.793 7.071,-12.093 2.357,-4.299 4.714,-8.986 7.07,-13.704 2.357,-4.718 4.714,-9.706 7.071,-14.602 2.357,-4.896 4.714,-9.937 7.071,-14.774 2.357,-4.837 4.714,-9.693 7.071,-14.249 2.357,-4.556 4.713,-9.009 7.07,-13.087 2.357,-4.078 4.714,-7.942 7.071,-11.381 2.357,-3.438 4.714,-6.57 7.071,-9.249 2.357,-2.679 4.714,-4.979004 7.07,-6.825004 2.357,-1.847 4.714,-3.266 7.071,-4.255 2.357,-0.989 4.714,-1.527 7.071,-1.681 2.357,-0.153 4.714,0.142 7.071,0.759 2.356,0.616 4.713,1.656 7.07,2.94 2.357,1.285 4.714,2.945 7.071,4.765004 2.357,1.82 4.714,3.952 7.071,6.156 2.357,2.204 4.713,4.642 7.07,7.069 2.357,2.426 4.714,5.002 7.071,7.49 2.357,2.488 4.714,5.038 7.071,7.436 2.357,2.398 4.714,4.775 7.071,6.951 2.356,2.176 4.713,4.257 7.07,6.105 2.357,1.849 4.714,3.539 7.071,4.986 2.357,1.446 4.714,2.688 7.071,3.692 2.357,1.005 4.713,1.776 7.07,2.333 2.357,0.558 4.714,0.873 7.071,1.011 2.357,0.139 4.714,0.044 7.071,-0.177 2.357,-0.222 4.714,-0.652 7.07,-1.153 2.357,-0.5 4.714,-1.17 7.071,-1.851 2.357,-0.681 4.714,-1.481 7.071,-2.235 2.357,-0.754 4.714,-1.572 7.071,-2.291 2.356,-0.718 4.713,-1.457 7.07,-2.019 2.357,-0.562 5.893,-1.128 7.071,-1.353"
         fill="none"
         stroke="#000000"
         stroke-width="2"
         id="path2"
         style="stroke:#d45500;stroke-width:4.55989;stroke-linecap:round;stroke-miterlimit:4;stroke-dasharray:none" />
      <path
         style="fill:none;stroke:#d45500;stroke-width:4.55989;stroke-linecap:round;stroke-linejoin:miter;stroke-miterlimit:4;stroke-dasharray:none;stroke-opacity:1"
         d="m 342.81784,107.31689 c 34.17235,-27.281937 72.30658,-23.770877 107.61344,1.1e-4"
         id="path9227"
         sodipodi:nodetypes="cc" />
    </g>
  </g>
</svg>
