<?xml version="1.0" encoding="UTF-8" standalone="no"?>
<!-- Created with Inkscape (http://www.inkscape.org/) -->

<svg
   width="38.700001cm"
   height="12.6cm"
   viewBox="0 0 387.00001 125.99999"
   version="1.1"
   id="svg5"
   inkscape:version="1.1.1 (3bf5ae0d25, 2021-09-20)"
   sodipodi:docname="grand logo arriere du clavier - logo seulement.svg"
   xml:space="preserve"
   xmlns:inkscape="http://www.inkscape.org/namespaces/inkscape"
   xmlns:sodipodi="http://sodipodi.sourceforge.net/DTD/sodipodi-0.dtd"
   xmlns="http://www.w3.org/2000/svg"
   xmlns:svg="http://www.w3.org/2000/svg"><sodipodi:namedview
     id="namedview7"
     pagecolor="#ffffff"
     bordercolor="#666666"
     borderopacity="1.0"
     inkscape:pageshadow="2"
     inkscape:pageopacity="0.0"
     inkscape:pagecheckerboard="0"
     inkscape:document-units="mm"
     showgrid="false"
     units="cm"
     width="38cm"
     inkscape:zoom="0.79596841"
     inkscape:cx="731.81296"
     inkscape:cy="243.1001"
     inkscape:window-width="2560"
     inkscape:window-height="1369"
     inkscape:window-x="2552"
     inkscape:window-y="-8"
     inkscape:window-maximized="1"
     inkscape:current-layer="layer2"
     inkscape:showpageshadow="2"
     inkscape:deskcolor="#d1d1d1" /><defs
     id="defs2" /><g
     inkscape:groupmode="layer"
     id="layer2"
     inkscape:label="Layer 2"
     style="display:inline"><g
       id="g1316"
       transform="matrix(-1,0,0,1,389.25931,0)"><path
         style="fill:none;stroke:#000000;stroke-width:0.265;stroke-linecap:butt;stroke-linejoin:miter;stroke-dasharray:none;stroke-opacity:1"
         d="m 18.256269,113.81386 c 0.20441,0.81764 25.080311,-1.84581 35.690182,-11.51297 8.281229,-7.545424 17.013528,-14.227192 22.039101,-23.848276 6.100706,-11.679346 3.701873,-25.618203 6.249892,-38.321718 1.302474,-6.493668 1.830997,-13.838324 6.085424,-18.914151 3.387074,-4.041015 8.742775,-6.7902 13.980022,-7.40119 4.1076,-0.479203 8.96103,0.327109 12.00638,3.124946 3.63909,3.343319 3.99417,9.128507 4.93412,13.980027 0.96026,4.956374 0.97974,10.093051 0.65789,15.13132 -0.39015,6.10745 -2.7086,11.986078 -3.12495,18.091798 -0.32096,4.70677 -1.04796,9.685703 0.49342,14.144498 1.97407,5.710464 6.22959,10.562894 10.6906,14.637908 5.19253,4.743237 11.30376,9.015748 18.0918,10.855078 5.47614,1.48385 13.21459,3.46026 17.01979,-0.19056 4.55419,-4.369426 6.60771,-11.256894 8.05857,-17.427519 1.27347,-5.416174 1.30402,-15.190807 3.21063,-23.499643 1.69512,-7.387163 3.73107,-14.691954 5.59201,-22.039098 2.15711,-8.516459 3.6355,-17.233322 6.46066,-25.552076 1.14505,-3.371644 1.32419,-7.751079 4.22995,-9.8091654 3.9015,-2.7633525 9.61379,-1.8885511 14.30897,-0.9868255 4.71981,0.9064558 9.07293,3.469655 12.9932,6.2498939 3.35185,2.377119 6.40199,5.321872 8.71695,8.716957 2.50331,3.67132 5.57662,7.583396 5.33194,12.217885 -0.42355,8.022278 0.38797,9.423674 0.36248,14.13773 -0.0379,7.015834 -0.28246,14.034646 -0.76703,21.033828 -0.48287,6.974821 -2.75642,13.902459 -2.13135,20.865977 0.53053,5.910374 2.49394,11.695775 4.93413,17.104976 2.35152,5.21264 4.63073,11.0488 9.21037,14.47343 3.33507,2.49395 7.84331,3.34706 12.00637,3.45389 4.10786,0.10541 8.42424,-0.78256 12.00637,-2.796 2.70647,-1.52125 4.93723,-3.98043 6.52026,-6.65123 3.39215,-5.72303 4.4713,-12.31145 5.79586,-19.098316 0.76074,-3.89792 1.92779,-7.416276 1.99286,-11.420877 0.0573,-3.524682 0.11127,-7.679996 0.16447,-11.677433 0.0374,-2.809161 -0.74124,-5.579777 -0.82235,-8.388016 -0.0792,-2.742229 -0.70929,-5.684214 0.32893,-8.223543 0.89601,-2.191503 2.86583,-3.855625 4.76967,-5.263069 3.94432,-2.915894 8.57642,-5.009632 13.32214,-6.249895 2.92502,-0.764435 6.20378,-1.688657 9.04589,-0.657883 2.15047,0.77993 4.2908,2.574447 4.93414,4.769657 1.28979,4.401074 2.20725,7.52229 2.8029,10.651215 0.90042,4.72987 2.29357,8.87714 3.20425,13.367931 0.99588,4.911 1.62778,9.888888 2.46754,14.828979 0.74115,4.359941 0.83929,8.887003 2.26909,13.071982 1.04911,3.070718 2.30692,6.262178 4.55199,8.605178 2.32892,2.43051 5.46794,4.21819 8.71696,5.0986 3.17492,0.86033 6.63948,0.62867 9.86827,0 4.87654,-0.9495 13.81554,-5.59201 13.81554,-5.59201"
         id="path870"
         sodipodi:nodetypes="csssaaaaaaaaasssaaaaaasaaaaaaaasssaaaaassaaaaaac" /><path
         style="opacity:1;fill:none;stroke:#000000;stroke-width:0.264583px;stroke-linecap:butt;stroke-linejoin:miter;stroke-opacity:1"
         d="m 65.623884,95.886528 c 0,0 4.820907,3.82055 7.730132,4.276242 3.51987,0.55134 6.943695,-2.440751 10.486745,-2.066238 2.916231,0.308256 5.32819,2.468438 8.085166,3.467698 1.887103,0.68397 3.813514,1.27405 5.769782,1.72349 2.327811,0.5348 4.689781,1.32014 7.072251,1.15129 1.83342,-0.12994 3.42513,-1.66204 5.26307,-1.6447 2.08032,0.0196 3.93243,1.36217 5.92095,1.97365 2.12341,0.65297 4.19431,1.72795 6.41436,1.80918 2.46054,0.09 4.83018,-0.95975 7.23672,-1.48024 3.13276,-0.67755 6.25971,-1.38365 9.37484,-2.13812"
         id="path2075"
         sodipodi:nodetypes="caaaaaaaaac" /><path
         style="fill:none;stroke:#000000;stroke-width:0.264583px;stroke-linecap:butt;stroke-linejoin:miter;stroke-opacity:1"
         d="m 270.22568,117.59669 c 0,0 3.18344,4.13663 5.41754,3.97552 4.64918,-0.33528 8.32477,-7.07941 12.29715,-5.80295 2.73306,0.87823 4.60464,4.12002 7.28488,3.63661 3.35322,-0.60478 6.76472,-3.82909 11.01956,-4.93413 1.75189,-0.45499 2.67392,2.73176 4.44071,3.12495 3.09114,0.68791 5.78174,0.69507 7.99094,-0.74596 2.78988,-1.8198 3.81657,-4.46731 6.01729,-6.06548 1.11774,-0.8117 3.59013,-2.06999 3.59013,-2.06999"
         id="path858"
         sodipodi:nodetypes="csssssssc" /><g
         id="g1110"><g
           aria-label="Citr"
           id="text4326"
           style="font-size:19.7556px;line-height:1.25;font-family:'Playpen Sans';-inkscape-font-specification:'Playpen Sans';font-variant-ligatures:none;stroke-width:0.264583"><path
             d="m 107.64298,109.33788 q 0.11853,0.079 0.19755,0.23707 0.079,0.13829 0.079,0.29633 0,0.25682 -0.13829,0.47413 -0.11854,0.21732 -0.31609,0.35561 -0.1778,0.11853 -0.37536,0.11853 -0.21731,0 -0.37535,-0.11853 -0.15805,-0.11854 -0.31609,-0.21732 -0.77047,-0.5334 -1.40265,-0.82973 -0.61243,-0.31609 -1.26436,-0.43462 -0.63218,-0.13829 -1.48167,-0.13829 -1.46191,0 -2.568228,0.79022 -1.086558,0.77047 -1.698982,2.23238 -0.592668,1.46192 -0.592668,3.5165 0,1.71874 0.572913,3.06212 0.572912,1.32362 1.600203,2.07434 1.027292,0.75071 2.390432,0.75071 0.86924,0 1.71873,-0.27658 0.84949,-0.27658 1.61996,-0.77047 0.77047,-0.51364 1.34338,-1.18533 0.15805,-0.1778 0.31609,-0.25683 0.1778,-0.079 0.37536,-0.079 0.21731,0 0.39511,0.11853 0.1778,0.0988 0.29633,0.29634 0.11854,0.19755 0.11854,0.43462 0,0.25682 -0.15805,0.5334 -0.15804,0.27658 -0.49389,0.61243 -1.02729,1.08655 -2.4892,1.69898 -1.46192,0.59267 -3.04236,0.59267 -2.015075,0 -3.457234,-0.90876 -1.422403,-0.90876 -2.192872,-2.6275 -0.750713,-1.71873 -0.750713,-4.14867 0,-1.87678 0.49389,-3.37821 0.49389,-1.50143 1.402648,-2.56823 0.908758,-1.0668 2.15336,-1.63971 1.264361,-0.57292 2.785541,-0.57292 0.94827,0 1.87678,0.23707 0.92851,0.21731 1.778,0.65194 0.86925,0.43462 1.60021,1.0668 z"
             id="path1030" /><path
             d="m 111.47556,112.89389 q 0,-0.27658 0.11854,-0.45438 0.13829,-0.1778 0.33584,-0.25682 0.21731,-0.0988 0.43462,-0.0988 0.39512,0 0.65194,0.19755 0.27658,0.19756 0.27658,0.61243 0,1.4224 -0.0593,2.52871 -0.0395,1.10632 -0.0988,2.11385 -0.0593,1.00754 -0.11853,2.13361 -0.0395,1.10631 -0.0593,2.56823 0,0.37535 -0.25682,0.61242 -0.25682,0.23707 -0.63218,0.23707 -0.39511,0 -0.59267,-0.1778 -0.19755,-0.1778 -0.27658,-0.45438 -0.0593,-0.27658 -0.0593,-0.57291 0,-0.17781 0.0198,-0.86925 0.0395,-0.69145 0.079,-1.69898 0.0593,-1.02729 0.11853,-2.17312 0.0593,-1.16558 0.079,-2.27189 0.0395,-1.10632 0.0395,-1.97556 z m -0.27658,-4.16843 q 0,-0.33585 0.13829,-0.67169 0.15805,-0.35561 0.41487,-0.59267 0.25682,-0.23707 0.59267,-0.23707 0.63218,0 0.92851,0.25682 0.31609,0.25683 0.41487,0.57292 0.0988,0.31608 0.0988,0.49389 0,0.5334 -0.41487,0.96802 -0.39511,0.43462 -0.94827,0.43462 -0.49389,0 -0.86924,-0.3556 -0.35561,-0.3556 -0.35561,-0.86924 z"
             id="path1032" /><path
             d="m 117.56026,110.02933 q 0.0395,-0.39512 0.27658,-0.59267 0.25682,-0.19756 0.61243,-0.19756 0.23706,0 0.45437,0.0988 0.23707,0.079 0.37536,0.25682 0.13829,0.1778 0.0988,0.45438 -0.15805,1.26436 -0.27658,2.42994 -0.0988,1.16558 -0.15804,2.3114 -0.0593,1.14583 -0.0593,2.37068 0.0198,1.50142 0.11853,2.41018 0.11854,0.889 0.27658,1.28411 0.15805,0.39512 0.27658,0.39512 0.1778,0 0.45438,-0.21732 0.27658,-0.23706 0.5334,-0.51364 0.27658,-0.29634 0.39511,-0.43462 0.11853,-0.13829 0.25682,-0.1778 0.15805,-0.0593 0.29634,-0.0593 0.23706,0 0.43462,0.11853 0.19756,0.11854 0.31609,0.31609 0.11853,0.19756 0.11853,0.43462 0,0.13829 -0.079,0.29634 -0.0593,0.15804 -0.21731,0.3556 -0.39511,0.51365 -0.86925,0.86925 -0.45438,0.3556 -0.90875,0.5334 -0.45438,0.1778 -0.88901,0.1778 -0.77046,0 -1.32362,-0.55316 -0.5334,-0.57291 -0.75071,-1.778 -0.13829,-0.86925 -0.21732,-1.7385 -0.0593,-0.889 -0.0593,-1.778 0,-1.20509 0.0593,-2.31141 0.0593,-1.10631 0.1778,-2.25213 0.11854,-1.16558 0.27658,-2.50896 z m -1.02729,3.97087 q -0.37535,0.0198 -0.59267,-0.21731 -0.19755,-0.25682 -0.19755,-0.61242 0,-0.33585 0.19755,-0.57292 0.21732,-0.23706 0.59267,-0.25682 0.51365,-0.0395 1.0668,-0.0593 0.57292,-0.0395 1.18534,-0.0395 0.61242,-0.0198 1.32363,-0.0198 0.7112,-0.0198 1.52118,-0.0198 0.33584,0 0.57291,0.23707 0.23707,0.23707 0.25682,0.61242 0,0.3556 -0.25682,0.59267 -0.25682,0.21731 -0.57291,0.21731 -0.82974,0 -1.42241,0.0198 -0.59266,0 -1.12607,0.0198 -0.5334,0 -1.12606,0.0395 -0.59267,0.0198 -1.42241,0.0593 z"
             id="path1034" /><path
             d="m 124.86979,112.85438 q 0.0198,-0.41487 0.29634,-0.61243 0.27658,-0.21731 0.65193,-0.21731 0.3556,0 0.61243,0.19756 0.25682,0.1778 0.25682,0.57291 0,0.11853 0,0.31609 0,0.1778 -0.0198,0.41487 0,0.21731 -0.0395,0.49389 0.57292,-0.98778 1.30387,-1.46192 0.75072,-0.49389 1.65947,-0.49389 0.45438,0 0.96803,0.13829 0.5334,0.11853 1.08656,0.45438 0.23706,0.13829 0.33584,0.33585 0.0988,0.19755 0.079,0.47413 -0.0198,0.43462 -0.27658,0.67169 -0.23706,0.21731 -0.59266,0.21731 -0.19756,0 -0.37536,-0.079 -0.15804,-0.079 -0.31609,-0.1778 -0.19756,-0.11853 -0.41487,-0.21731 -0.21731,-0.11854 -0.55315,-0.11854 -1.16558,0 -1.87679,1.16558 -0.69144,1.14583 -1.14582,2.96334 -0.0198,0.67169 -0.0395,1.26436 0,0.57291 -0.0198,1.10632 -0.0197,0.5334 -0.0395,1.02729 0,0.49389 0,0.96802 0,0.25682 -0.13829,0.43462 -0.11853,0.17781 -0.33584,0.25683 -0.19756,0.0988 -0.43463,0.0988 -0.43462,0 -0.65193,-0.25683 -0.21731,-0.25682 -0.29634,-0.67169 -0.079,-0.43462 -0.079,-0.92851 0,-0.39511 0.0198,-0.98778 0.0395,-0.59267 0.079,-1.18534 0.0593,-0.59266 0.11853,-0.98778 z"
             id="path1036" /></g><g
           aria-label="uille 90"
           id="text10386"
           style="font-size:19.7556px;line-height:1.25;font-family:'Playpen Sans';-inkscape-font-specification:'Playpen Sans';font-variant-ligatures:none;stroke-width:0.264583"><path
             d="m 151.97874,123.32708 q -0.96803,0 -1.63972,-0.49389 -0.67169,-0.49389 -1.08656,-1.30387 -0.41486,-0.80998 -0.61242,-1.79776 -0.1778,-0.98778 -0.1778,-1.9558 0,-1.22485 0.1778,-2.4497 0.1778,-1.22485 0.37536,-2.35092 0.0395,-0.27657 0.29633,-0.45437 0.27658,-0.1778 0.61242,-0.1778 0.39512,0 0.63218,0.27657 0.23707,0.27658 0.23707,0.67169 -0.0197,0.3556 -0.15804,0.90876 -0.11854,0.55316 -0.23707,1.40265 -0.11853,0.82973 -0.11853,2.07434 0.0197,0.90875 0.1778,1.81751 0.1778,0.90876 0.55315,1.52118 0.39511,0.61243 1.02729,0.61243 0.65194,0 1.16558,-0.45438 0.53341,-0.47414 0.94827,-1.16558 0.41487,-0.7112 0.69145,-1.48167 0.29633,-0.77047 0.45438,-1.36314 0.0593,-1.12607 0.079,-2.1336 0.0198,-1.00754 0.0395,-1.89654 0.0198,-0.39511 0.27658,-0.59267 0.27658,-0.21731 0.65193,-0.21731 0.25683,0 0.45438,0.0988 0.19756,0.0988 0.31609,0.29633 0.11854,0.1778 0.11854,0.45438 0.0197,0.19756 0.0197,0.63218 0,0.41487 -0.0197,0.94827 -0.0198,0.5334 -0.079,1.12607 -0.0395,0.57291 -0.13828,1.10631 -0.0593,1.46192 -0.0988,2.84481 -0.0198,1.38289 -0.15805,2.72627 -0.0198,0.31609 -0.27658,0.5334 -0.25682,0.21731 -0.65193,0.21731 -0.51365,0 -0.69145,-0.25682 -0.15804,-0.25682 -0.15804,-0.55316 0,-0.1778 0.0197,-0.37535 0.0395,-0.19756 0.0593,-0.43463 0.0395,-0.23706 0.0395,-0.5334 -0.29633,0.45438 -0.63218,0.84949 -0.33584,0.39512 -0.7112,0.69145 -0.37536,0.29633 -0.82973,0.45438 -0.43463,0.1778 -0.94827,0.1778 z"
             id="path1057" /><path
             d="m 160.71069,113.19246 q 0,-0.27658 0.11853,-0.45438 0.13829,-0.1778 0.33585,-0.25683 0.21731,-0.0988 0.43462,-0.0988 0.39511,0 0.65194,0.19755 0.27657,0.19756 0.27657,0.61243 0,1.4224 -0.0593,2.52871 -0.0395,1.10632 -0.0988,2.11385 -0.0593,1.00754 -0.11853,2.13361 -0.0395,1.10631 -0.0593,2.56822 0,0.37536 -0.25682,0.61243 -0.25683,0.23707 -0.63218,0.23707 -0.39511,0 -0.59267,-0.1778 -0.19756,-0.17781 -0.27658,-0.45438 -0.0593,-0.27658 -0.0593,-0.57292 0,-0.1778 0.0198,-0.86924 0.0395,-0.69145 0.079,-1.69898 0.0593,-1.0273 0.11854,-2.17312 0.0593,-1.16558 0.079,-2.27189 0.0395,-1.10632 0.0395,-1.97556 z m -0.27658,-4.16844 q 0,-0.33584 0.13829,-0.67169 0.15804,-0.3556 0.41487,-0.59266 0.25682,-0.23707 0.59267,-0.23707 0.63217,0 0.92851,0.25682 0.31609,0.25682 0.41487,0.57291 0.0988,0.31609 0.0988,0.49389 0,0.53341 -0.41486,0.96803 -0.39512,0.43462 -0.94827,0.43462 -0.49389,0 -0.86925,-0.3556 -0.3556,-0.3556 -0.3556,-0.86925 z"
             id="path1059" /><path
             d="m 166.71637,107.68064 q 0.0395,-0.39511 0.29633,-0.61242 0.25682,-0.21731 0.63218,-0.21731 0.3556,0 0.5334,0.13829 0.19756,0.13829 0.25682,0.39511 0.079,0.23707 0.0593,0.55316 -0.0395,0.55315 -0.1778,1.75824 -0.11853,1.2051 -0.27658,3.31895 -0.13829,2.11384 -0.23706,5.41303 -0.0198,1.04705 -0.0593,2.05458 -0.0395,0.98778 -0.079,1.97556 0,0.43463 -0.25683,0.63218 -0.25682,0.19756 -0.65193,0.19756 -0.37536,0 -0.65194,-0.19756 -0.25682,-0.19755 -0.23706,-0.63218 0.0593,-1.85702 0.13829,-3.73381 0.079,-1.87678 0.1778,-3.7338 0.0988,-1.85703 0.21731,-3.6943 0.13829,-1.83727 0.31609,-3.61528 z"
             id="path1061" /><path
             d="m 172.3862,107.68064 q 0.0395,-0.39511 0.29633,-0.61242 0.25683,-0.21731 0.63218,-0.21731 0.3556,0 0.5334,0.13829 0.19756,0.13829 0.25683,0.39511 0.079,0.23707 0.0593,0.55316 -0.0395,0.55315 -0.1778,1.75824 -0.11853,1.2051 -0.27658,3.31895 -0.13828,2.11384 -0.23706,5.41303 -0.0198,1.04705 -0.0593,2.05458 -0.0395,0.98778 -0.079,1.97556 0,0.43463 -0.25682,0.63218 -0.25683,0.19756 -0.65194,0.19756 -0.37536,0 -0.65193,-0.19756 -0.25683,-0.19755 -0.23707,-0.63218 0.0593,-1.85702 0.13829,-3.73381 0.079,-1.87678 0.1778,-3.7338 0.0988,-1.85703 0.21731,-3.6943 0.13829,-1.83727 0.31609,-3.61528 z"
             id="path1063" /><path
             d="m 180.82178,123.09001 q -1.08656,0 -1.93605,-0.43462 -0.84949,-0.43462 -1.44216,-1.16558 -0.59266,-0.75071 -0.90875,-1.65947 -0.29634,-0.92852 -0.29634,-1.87678 0,-1.00754 0.39511,-1.99532 0.41487,-0.98778 1.12607,-1.81752 0.73096,-0.82973 1.67923,-1.32362 0.94827,-0.49389 2.03483,-0.49389 0.84949,0 1.48167,0.3556 0.65193,0.33585 1.00753,0.92851 0.37536,0.59267 0.37536,1.3829 0,0.82973 -0.41487,1.58044 -0.41487,0.73096 -1.16558,1.18534 -1.00754,0.69145 -2.21263,0.96802 -1.18533,0.25683 -2.41018,0.29634 0.15804,0.57291 0.51365,1.12607 0.3556,0.55315 0.90875,0.92851 0.57292,0.3556 1.34338,0.3556 0.73096,0 1.40265,-0.41487 0.69145,-0.43462 1.18534,-0.98778 0.11853,-0.15804 0.25682,-0.21731 0.15804,-0.0593 0.29633,-0.0593 0.23707,0 0.43463,0.11853 0.19755,0.11853 0.31609,0.31609 0.11853,0.19755 0.11853,0.43462 0.0198,0.15805 -0.0395,0.31609 -0.0593,0.13829 -0.19756,0.27658 -0.73095,0.79022 -1.71873,1.34338 -0.96803,0.5334 -2.13361,0.5334 z M 178.056,117.4004 q 0.79022,-0.0395 1.46191,-0.11853 0.67169,-0.0988 1.40265,-0.39512 0.65193,-0.25682 1.14582,-0.73095 0.49389,-0.49389 0.49389,-1.18534 0,-0.27658 -0.13829,-0.49389 -0.11853,-0.23707 -0.37535,-0.37536 -0.23707,-0.15804 -0.63218,-0.15804 -0.63218,0 -1.20509,0.31609 -0.57291,0.31609 -1.02729,0.82973 -0.45438,0.49389 -0.75072,1.10632 -0.27657,0.61242 -0.37535,1.20509 z"
             id="path1065" /><path
             d="m 203.16532,113.94317 0.35561,1.69898 q -0.51365,0.51365 -1.14583,0.92851 -0.61242,0.41487 -1.30387,0.67169 -0.69144,0.23707 -1.38289,0.23707 -1.34338,0 -2.31141,-0.63218 -0.96802,-0.65193 -1.48167,-1.67922 -0.51364,-1.0273 -0.51364,-2.19288 0,-1.36313 0.55316,-2.52871 0.55315,-1.18534 1.56069,-1.89654 1.02729,-0.7112 2.41018,-0.7112 1.0668,0 1.91629,0.49389 0.86925,0.49389 1.46192,1.30387 0.61242,0.80998 0.92851,1.79776 0.31609,0.98778 0.31609,1.97556 0,1.38289 -0.37536,2.70651 -0.3556,1.30387 -1.00753,2.48921 -0.65194,1.16558 -1.54094,2.11385 -0.889,0.94827 -1.93605,1.6002 -1.02729,0.65194 -2.17311,0.92852 -0.65194,0.13829 -0.96803,-0.13829 -0.31609,-0.25683 -0.31609,-0.69145 0,-0.27658 0.13829,-0.49389 0.15805,-0.21731 0.43463,-0.27658 1.14582,-0.27658 2.21262,-1.04704 1.06681,-0.79023 1.9163,-1.9163 0.84949,-1.12607 1.34338,-2.44969 0.49389,-1.32363 0.49389,-2.66701 0,-0.65193 -0.1778,-1.36313 -0.1778,-0.71121 -0.55316,-1.32363 -0.3556,-0.61242 -0.90876,-0.98778 -0.55315,-0.37536 -1.30387,-0.37536 -0.73095,0 -1.34338,0.45438 -0.59267,0.45438 -0.94827,1.22485 -0.3556,0.77047 -0.3556,1.69898 0,0.80998 0.33585,1.48167 0.3556,0.67169 0.92851,1.0668 0.59267,0.37536 1.32363,0.37536 0.65193,0 1.30387,-0.19756 0.67169,-0.21731 1.22484,-0.63217 0.57292,-0.43463 0.889,-1.04705 z"
             id="path1067" /><path
             d="m 213.10237,123.4061 q -1.6002,0 -2.78554,-0.61242 -1.16558,-0.63218 -1.93605,-1.69898 -0.77046,-1.08656 -1.16558,-2.46945 -0.37535,-1.3829 -0.37535,-2.88432 0,-1.48167 0.37535,-2.88432 0.39512,-1.4224 1.14583,-2.56823 0.77047,-1.14582 1.91629,-1.81751 1.14583,-0.69145 2.64725,-0.69145 0.31609,0 0.67169,0.0395 0.3556,0.0395 0.77047,0.11854 0.41487,0.079 0.86925,0.23706 1.32362,0.84949 2.15336,2.17312 0.84949,1.32362 1.26436,2.86456 0.41486,1.54094 0.41486,3.04236 0,1.44216 -0.37535,2.72628 -0.37536,1.28411 -1.12607,2.29165 -0.75071,0.98778 -1.87678,1.56069 -1.10632,0.57291 -2.58799,0.57291 z m -4.46476,-7.82322 q 0,1.08656 0.23706,2.17312 0.23707,1.0668 0.75072,1.97556 0.51364,0.889 1.36313,1.44216 0.86925,0.5334 2.11385,0.5334 1.30387,0 2.21263,-0.67169 0.92851,-0.67169 1.4224,-1.87678 0.49389,-1.22485 0.49389,-2.84481 0,-1.32362 -0.3556,-2.64725 -0.3556,-1.34338 -1.02729,-2.41018 -0.65193,-1.08656 -1.58045,-1.58045 -0.31609,-0.0988 -0.65193,-0.13829 -0.33585,-0.0593 -0.67169,-0.0593 -1.0668,0 -1.81752,0.45438 -0.75071,0.45438 -1.2446,1.18534 -0.47413,0.7112 -0.75071,1.56069 -0.27658,0.82974 -0.39512,1.6002 -0.0988,0.77047 -0.0988,1.30387 z"
             id="path1069" /></g><g
           id="g15849"
           transform="matrix(0.5626445,0,0,0.5626445,73.012652,31.832646)"
           style="stroke-width:1.42186;stroke-miterlimit:4;stroke-dasharray:none"><ellipse
             style="display:inline;fill:#3da638;fill-opacity:0;stroke:#010201;stroke-width:1.42186;stroke-linecap:round;stroke-linejoin:round;stroke-miterlimit:4;stroke-dasharray:none"
             id="path11429"
             cx="118.35508"
             cy="153.1671"
             rx="3.345017"
             ry="8.982357" /><path
             id="ellipse11512"
             style="display:inline;fill:#3da638;fill-opacity:0;stroke:#010201;stroke-width:1.42186;stroke-linecap:round;stroke-linejoin:round;stroke-miterlimit:4;stroke-dasharray:none"
             d="m 119.89166,144.81737 c 0.56595,-0.26476 0.13036,-0.44163 1.70344,-0.44163 3.14616,-1e-5 5.69663,3.96204 5.69663,8.84947 0,4.88743 -2.55047,8.84948 -5.69663,8.84947 m 0,0 c -1.57308,-1e-5 -1.36996,-0.17689 -1.81967,-0.44164"
             sodipodi:nodetypes="cssccc" /><path
             style="display:inline;fill:none;stroke:#000000;stroke-width:1.42186;stroke-linecap:butt;stroke-linejoin:miter;stroke-miterlimit:4;stroke-dasharray:none;stroke-opacity:1"
             d="m 123.4403,144.82732 c 0,0 0.4472,-0.65842 1.94692,-0.66835 1.45652,-0.01 5.793,2.02445 5.92792,9.38588 0.0976,5.32418 -3.97289,8.74129 -6.21851,8.65942 -1.86402,-0.068 -1.56915,-0.72646 -1.56915,-0.72646"
             id="path13892"
             sodipodi:nodetypes="csssc" /><path
             id="path15502"
             style="display:inline;fill:#3da638;fill-opacity:0;stroke:#010201;stroke-width:1.42186;stroke-linecap:round;stroke-linejoin:round;stroke-miterlimit:4;stroke-dasharray:none"
             d="m 116.59663,144.81737 c -0.56595,-0.26476 -0.13036,-0.44163 -1.70344,-0.44163 -3.14616,-1e-5 -5.69663,3.96204 -5.69663,8.84947 0,4.88743 2.55047,8.84948 5.69663,8.84947 m 0,0 c 1.57308,-1e-5 1.36996,-0.17689 1.81967,-0.44164"
             sodipodi:nodetypes="cssccc" /><path
             style="display:inline;fill:none;stroke:#000000;stroke-width:1.42186;stroke-linecap:butt;stroke-linejoin:miter;stroke-miterlimit:4;stroke-dasharray:none;stroke-opacity:1"
             d="m 113.04799,144.82732 c 0,0 -0.4472,-0.65842 -1.94692,-0.66835 -1.45652,-0.01 -5.793,2.02445 -5.92792,9.38588 -0.0976,5.32418 3.97289,8.74129 6.21851,8.65942 1.86402,-0.068 1.56915,-0.72646 1.56915,-0.72646"
             id="path15504"
             sodipodi:nodetypes="csssc" /><path
             style="fill:none;stroke:#000000;stroke-width:1.42186;stroke-linecap:round;stroke-linejoin:miter;stroke-miterlimit:4;stroke-dasharray:none;stroke-opacity:1"
             d="m 117.04745,144.59485 c 1.06604,-0.29113 -0.43728,-4.30683 -1.71445,-5.02711 -0.61411,-0.34633 3.02421,0.1789 3.25454,0.14532 0.44752,-0.0652 0.89809,0.53686 0.92987,0.98799 0.0917,1.30236 -0.10681,3.67115 -0.0291,3.6323"
             id="path15558"
             sodipodi:nodetypes="csssc" /></g></g><path
         style="display:inline;opacity:1;fill:none;stroke:#000000;stroke-width:0.4;stroke-linecap:round;stroke-linejoin:round;stroke-miterlimit:4;stroke-dasharray:none;stroke-opacity:1"
         d="m 207.364,34.915303 c 0.12033,0.330346 3.01444,-9.821072 4.93138,-8.87649 1.47014,0.72442 2.09576,7.837105 2.63007,8.712109 1.19474,1.956527 2.89834,1.62387 4.32202,-0.252411 0.6034,-0.795226 2.2929,-5.582044 2.70628,-6.515776"
         id="path15986"
         sodipodi:nodetypes="csssc" /><g
         id="g1984"><path
           style="display:inline;opacity:1;fill:none;stroke:#000000;stroke-width:0.4;stroke-linecap:round;stroke-linejoin:miter;stroke-miterlimit:4;stroke-dasharray:none;stroke-opacity:1"
           d="m 185.74596,59.591374 c -2.56523,0.25886 -5.11645,1.744844 -7.8163,1.479396"
           id="path18061"
           sodipodi:nodetypes="cc"
           inkscape:label="path18061" /><path
           style="display:inline;opacity:1;fill:none;stroke:#000000;stroke-width:0.4;stroke-linecap:round;stroke-linejoin:miter;stroke-miterlimit:4;stroke-dasharray:none;stroke-opacity:1"
           d="m 214.34474,67.204038 c 3.87435,1.708166 7.11573,3.796112 10.02715,6.082038"
           id="path15984"
           sodipodi:nodetypes="cc" /><path
           style="display:inline;opacity:1;fill:none;stroke:#000000;stroke-width:0.4;stroke-linecap:round;stroke-linejoin:miter;stroke-miterlimit:4;stroke-dasharray:none;stroke-opacity:1"
           d="m 213.05884,71.622636 6.57843,6.002814"
           id="path17501" /><path
           style="display:inline;opacity:1;fill:none;stroke:#000000;stroke-width:0.4;stroke-linecap:round;stroke-linejoin:miter;stroke-miterlimit:4;stroke-dasharray:none;stroke-opacity:1"
           d="m 210.42906,72.623901 2.93636,6.599531"
           id="path17558" /><path
           style="display:inline;opacity:1;fill:none;stroke:#000000;stroke-width:0.4;stroke-linecap:round;stroke-linejoin:miter;stroke-miterlimit:4;stroke-dasharray:none;stroke-opacity:1"
           d="m 199.65529,63.152908 -1.31569,3.864827"
           id="path17464" /><path
           style="display:inline;opacity:1;fill:none;stroke:#000000;stroke-width:0.4;stroke-linecap:round;stroke-linejoin:miter;stroke-miterlimit:4;stroke-dasharray:none;stroke-opacity:1"
           d="m 188.45889,57.033761 c -3.718,-1.680763 -5.96223,-5.069085 -10.07203,-6.007415"
           id="path18057"
           sodipodi:nodetypes="cc" /><path
           style="display:inline;opacity:1;fill:none;stroke:#000000;stroke-width:0.4;stroke-linecap:round;stroke-linejoin:miter;stroke-miterlimit:4;stroke-dasharray:none;stroke-opacity:1"
           d="m 185.90822,58.949938 c -2.31685,-1.727361 -4.16447,-1.853429 -7.03522,-2.7379"
           id="path18059"
           sodipodi:nodetypes="cc" /><path
           style="display:inline;opacity:1;fill:none;fill-opacity:1;stroke:#000000;stroke-width:0.4;stroke-dasharray:none;stroke-opacity:1"
           d="m 196.01806,63.842383 c 0,0 0.1806,3.553538 1.02066,5.052274 0.15891,0.2835 0.41009,0.549533 0.71447,0.663432 0.49415,0.184909 1.08623,0.129446 1.58202,-0.05103 0.5692,-0.207201 1.02501,-0.671309 1.42892,-1.12273 0.66731,-0.745803 1.58203,-2.551653 1.58203,-2.551653"
           id="path485"
           sodipodi:nodetypes="caaaac" /></g><ellipse
         style="display:inline;opacity:1;fill:#3da638;fill-opacity:0;stroke:#010201;stroke-width:0.405606;stroke-linecap:round;stroke-linejoin:round;stroke-miterlimit:4;stroke-dasharray:none"
         id="path18522"
         cx="198.58742"
         cy="24.027178"
         rx="5.9002905"
         ry="6.4790711" /><path
         style="opacity:1;fill:none;fill-opacity:1;stroke:#000000;stroke-width:0.4;stroke-linecap:round;stroke-dasharray:none;stroke-opacity:1"
         d="m 191.47611,48.328325 c 0,0 -1.7995,3.568999 -1.93925,5.511575 -0.17668,2.455731 0.04,5.213788 1.42893,7.246696 1.00097,1.465078 2.74246,2.555657 4.49091,2.857855 2.93677,0.507584 6.03676,-5.605866 6.22604,-4.235747 0.31397,2.272698 0.13897,5.258505 0.96962,6.685333 0.83755,1.438697 3.2939,1.410591 4.89918,0.969629 1.93983,-0.532865 3.2797,-2.425409 4.49091,-4.031615 1.28715,-1.706932 2.80682,-5.766738 2.80682,-5.766738"
         id="path486"
         sodipodi:nodetypes="caasssaac" /><g
         id="g497"
         transform="translate(10.214837,1.6444969)"><path
           style="opacity:1;fill:none;fill-opacity:1;stroke:#000000;stroke-width:0.4;stroke-linecap:round;stroke-dasharray:none;stroke-opacity:1"
           d="m 240.83688,17.826403 c -0.66611,3.843969 -2.17997,3.691613 -3.39207,2.922954 -1.56644,-0.993365 -0.26973,-3.659384 -0.0722,-5.37679 0.1767,-1.536143 1.01579,-3.514761 2.09297,-4.94376 0.48398,-0.6420513 1.10254,-1.2976568 1.87647,-1.5156053 0.71232,-0.2005986 1.4878,0.4853203 2.20123,0.2886868 0.84215,-0.2321118 1.25928,-1.2676456 2.0569,-1.6238629 1.09242,-0.487874 2.34118,-0.5604643 3.53641,-0.6134592 1.30231,-0.057743 2.61571,0.086096 3.89727,0.3247726 0.71472,0.1331088 1.38709,0.7874459 2.09297,0.6134593 0.48731,-0.120114 0.63926,-0.8111813 1.08258,-1.0464894 0.82518,-0.4379919 1.86509,-0.8980949 2.74252,-0.5773734 0.71639,0.2618581 1.06114,1.1246406 1.40735,1.8042919 0.45458,0.8923755 0.72199,2.2950806 0.82998,2.8868666 0.19605,1.074415 0.37673,2.157022 0.43303,3.247726 0.0422,0.817212 0.36167,1.760028 -0.0722,2.453837 -0.30239,0.483548 -0.96284,0.65346 -1.5156,0.793888 -1.39265,0.353802 -3.41173,-2.679595 -3.39207,-2.309494 0.3987,7.503724 1.45602,9.983403 0.28869,12.124842 -0.68586,1.258199 -2.56569,-1.674127 -3.46424,-1.29909 -1.05473,0.44022 -0.59797,2.817825 -1.73212,2.959039 -1.71201,0.213165 -1.56377,-3.951728 -2.74253,-3.608585 -0.85839,0.249882 -0.40952,4.112463 -1.87646,3.969442 -1.3794,-0.134487 -0.0901,-3.569629 -0.86606,-3.89727 -1.51083,-0.637897 -0.82013,6.076623 -2.88687,5.629391 -0.5273,-0.114104 -1.57064,-1.210964 -1.80429,-1.948635 -0.9415,-2.972424 0.0351,-11.258782 -0.72169,-11.258782 z"
           id="path487"
           sodipodi:nodetypes="sssaaaaaaaaassaassssssssssss" /><path
           style="display:inline;opacity:1;fill:none;fill-opacity:1;stroke:#000000;stroke-width:0.4;stroke-linecap:round;stroke-linejoin:round;stroke-dasharray:none;stroke-opacity:1"
           d="m 254.94644,7.9388842 c 0,0 1.11616,2.1043748 1.40735,3.2477248 0.33086,1.299114 0.36086,4.005529 0.36086,4.005529"
           id="path493"
           sodipodi:nodetypes="cac" /><path
           style="display:inline;opacity:1;fill:none;fill-opacity:1;stroke:#000000;stroke-width:0.4;stroke-linecap:round;stroke-dasharray:none;stroke-opacity:1"
           d="m 243.65157,9.1658026 c 0,0 -1.46798,2.3715134 -1.91255,3.6807554 -0.55383,1.631022 -0.90214,5.088103 -0.90214,5.088103"
           id="path488"
           sodipodi:nodetypes="cac" /><ellipse
           style="opacity:1;fill:#000000;fill-opacity:1;stroke:#000000;stroke-width:0.297865;stroke-linecap:round;stroke-linejoin:round;stroke-dasharray:none;stroke-opacity:1"
           id="path495"
           ry="2.5771878"
           rx="1.6568142"
           cy="29.777069"
           cx="245.09438"
           transform="matrix(0.99782952,-0.06585017,0.06817833,0.99767315,0,0)" /><ellipse
           style="opacity:1;fill:#000000;fill-opacity:1;stroke:#000000;stroke-width:0.295799;stroke-linecap:round;stroke-linejoin:round;stroke-dasharray:none;stroke-opacity:1"
           id="ellipse495"
           ry="2.5959561"
           rx="1.6220927"
           cy="50.04277"
           cx="246.4464"
           transform="matrix(0.98895443,-0.14821986,0.14673306,0.98917613,0,0)" /><path
           style="opacity:1;fill:#000000;fill-opacity:1;stroke:#000000;stroke-width:0.4;stroke-linecap:round;stroke-linejoin:round;stroke-dasharray:none;stroke-opacity:1"
           d="m 245.74455,18.367691 c 0,0 2.02692,-1.439328 3.21164,-1.659949 1.41558,-0.263614 4.29421,0.469116 4.29421,0.469116 0.22021,0.146809 -1.24898,3.223819 -3.06729,3.464241 -1.08777,0.143828 -2.28281,-0.137575 -3.21164,-0.721717 -0.55818,-0.351037 -1.22692,-1.551691 -1.22692,-1.551691 z"
           id="path496"
           sodipodi:nodetypes="cscssc" /><path
           style="opacity:1;fill:#000000;fill-opacity:1;stroke:#000000;stroke-width:0.4;stroke-linecap:round;stroke-linejoin:round;stroke-dasharray:none;stroke-opacity:1"
           d="m 248.37882,20.677185 c 0,0 -0.22949,1.940104 0.36085,2.489923 0.6692,0.623268 1.62919,0.466785 2.3095,-0.144342 0.74034,-0.665048 0.57737,-2.959039 0.57737,-2.959039"
           id="path497"
           sodipodi:nodetypes="cssc" /></g><path
         style="display:inline;opacity:1;fill:none;fill-opacity:1;stroke:#000000;stroke-width:0.265;stroke-linecap:round;stroke-linejoin:round;stroke-dasharray:none;stroke-opacity:1"
         d="m 281.82543,63.20079 c 0,0 5.15667,-3.605651 8.10268,-3.535707 2.32727,0.05525 5.14705,1.049721 6.26115,3.093744 0.82791,1.518959 0.42848,3.757369 -0.58928,5.156244 -1.39635,1.919239 -4.14053,2.558865 -6.48213,2.946424 -2.21514,0.36663 -6.70314,-0.662946 -6.70314,-0.662946"
         id="path498"
         sodipodi:nodetypes="caaaac" /><ellipse
         style="opacity:1;fill:#000000;fill-opacity:1;stroke:#000000;stroke-width:0.278018;stroke-linecap:round;stroke-linejoin:round;stroke-dasharray:none;stroke-opacity:1"
         id="path499"
         cx="291.9906"
         cy="50.273357"
         rx="4.2658052"
         ry="2.9767447" /><g
         id="g486"
         transform="translate(0.12891453,-0.13768638)"><path
           style="display:inline;opacity:1;fill:none;stroke:#000000;stroke-width:0.264999;stroke-linecap:round;stroke-linejoin:round;stroke-opacity:1"
           d="m 335.72836,17.492777 c 0,0 -0.4298,-1.984956 -0.4155,-2.991639 0.0344,-2.418232 -0.0651,-5.0100603 0.78943,-7.4375465 0.47591,-1.3518941 1.46754,-2.5935822 2.61771,-3.4486945 1.02474,-0.7618603 2.43651,-1.5691949 3.69798,-1.3711679 1.18179,0.1855185 2.18519,1.3116111 2.65925,2.4099313 0.55995,1.2973041 0.14824,2.8442323 -0.0831,4.2381548 -0.23092,1.3913758 -1.39431,3.1870088 -1.82823,4.5290088 -0.47971,1.483609 -0.9141,3.947301 -0.9141,3.947301 l -1.24653,-2.866987 -0.87254,2.409931 -3.2825,-0.997213 z"
           id="path2"
           sodipodi:nodetypes="csssssssccccc" /><ellipse
           style="fill:#000000;fill-opacity:1;stroke:#000000;stroke-width:0.264999;stroke-linecap:round;stroke-linejoin:round;stroke-opacity:1"
           id="path3"
           cx="342.99973"
           cy="7.0635915"
           rx="1.0803139"
           ry="1.9528754" /><path
           style="fill:#000000;fill-opacity:1;stroke:#000000;stroke-width:0.264999;stroke-linecap:round;stroke-linejoin:round;stroke-opacity:1"
           d="m 344.57862,10.304534 c 0,0 -2.53815,-0.3746644 -2.82543,0.540156 -0.24355,0.775582 1.70357,1.745123 1.70357,1.745123"
           id="path4"
           sodipodi:nodetypes="cac" /></g><g
         id="g490"
         transform="translate(-4.8184296,-2.8205441)"><path
           style="opacity:1;fill:none;fill-opacity:1;stroke:#000000;stroke-width:0.264999;stroke-linecap:round;stroke-linejoin:round;stroke-opacity:1"
           d="m 365.72785,22.021785 0.62325,-1.869774 3.49025,1.703572 1.99443,-2.659234 4.27969,0.831011 c 0,0 0.88633,-6.555623 0.0831,-9.681276 -0.51396,-1.9999946 -1.33404,-4.2281049 -3.03319,-5.4015698 -1.45219,-1.002911 -3.47952,-0.9675386 -5.23536,-0.7894603 -1.15961,0.1176082 -2.28146,0.6079297 -3.2825,1.2049657 -1.36521,0.8142326 -2.85204,1.741344 -3.57336,3.1578409 -0.79548,1.5621405 -0.74805,3.5001865 -0.49861,5.2353675 0.19103,1.328879 0.8173,2.581098 1.49583,3.739549 0.98063,1.674216 3.65647,4.529008 3.65647,4.529008 z"
           id="path489"
           sodipodi:nodetypes="cccccsssssssc" /><path
           style="opacity:1;fill:#000000;fill-opacity:1;stroke:#000000;stroke-width:0.264999;stroke-linecap:round;stroke-linejoin:round;stroke-opacity:1"
           d="m 361.11574,8.4347594 c 0,0 3.16248,-0.2731961 3.90575,0.8310107 0.57346,0.8519449 0.0637,2.2024859 -0.54017,3.0331899 -0.83062,1.142728 -3.73954,1.994425 -3.73954,1.994425 l -0.22853,-3.178616 z"
           id="path490"
           sodipodi:nodetypes="cssccc" /></g><g
         id="g502"><path
           style="opacity:1;fill:none;fill-opacity:1;stroke:#000000;stroke-width:0.264999;stroke-linecap:round;stroke-linejoin:round;stroke-opacity:1"
           d="m 241.62661,62.933391 c 0,0 -3.75754,-7.914321 -3.81949,-12.163596 -0.0368,-2.523431 0.3384,-5.437985 2.05665,-7.286406 1.60308,-1.724518 4.30656,-2.723445 6.64003,-2.409216 2.52063,0.339433 4.70201,2.396198 6.1456,4.490202 1.88021,2.727345 2.91979,5.063443 4.13764,7.379588 0.90737,1.725668 2.23293,5.406043 2.23293,5.406043 0,0 -2.4806,-1.681387 -3.70197,-1.233987 -1.48566,0.544209 -0.99073,3.487881 -2.46797,4.05453 -0.95465,0.366191 -1.96753,-0.559671 -2.93807,-0.881419 -0.65284,-0.216428 -0.96066,-0.774834 -1.60672,-0.538934 -0.84895,0.309981 -1.17155,1.439753 -1.68392,2.18425 -0.38675,0.56196 -0.28338,1.170011 -0.96035,1.254154 -1.04186,0.129495 -1.5233,-1.566124 -2.56828,-1.464859 -0.57965,0.05617 -1.46608,1.20965 -1.46608,1.20965 z"
           id="path491"
           sodipodi:nodetypes="cssssscsssssssc" /><ellipse
           style="opacity:1;fill:#000000;fill-opacity:1;stroke:#000000;stroke-width:0.264999;stroke-linecap:round;stroke-linejoin:round;stroke-opacity:1"
           id="path492"
           cx="245.64677"
           cy="56.799587"
           rx="3.1162903"
           ry="2.7007852" /><ellipse
           style="opacity:1;fill:#000000;fill-opacity:1;stroke:#000000;stroke-width:0.264999;stroke-linecap:round;stroke-linejoin:round;stroke-opacity:1"
           id="path494"
           cx="224.54416"
           cy="102.55498"
           rx="1.620471"
           ry="3.7603235"
           transform="rotate(-12.722045)" /><ellipse
           style="opacity:1;fill:#000000;fill-opacity:1;stroke:#000000;stroke-width:0.264999;stroke-linecap:round;stroke-linejoin:round;stroke-opacity:1"
           id="ellipse494"
           cx="221.16098"
           cy="119.67819"
           rx="1.620471"
           ry="3.7603235"
           transform="rotate(-17.132696)" /></g><ellipse
         style="display:inline;opacity:1;fill:none;fill-opacity:1;stroke:#000000;stroke-width:0.290847;stroke-linecap:round;stroke-linejoin:round;stroke-opacity:1"
         id="path502"
         cx="92.400154"
         cy="37.621735"
         rx="4.9731412"
         ry="7.0091171"
         transform="rotate(-6.32356)" /><g
         id="g504"><path
           style="opacity:1;fill:none;fill-opacity:1;stroke:#000000;stroke-width:0.264999;stroke-linecap:round;stroke-linejoin:round;stroke-opacity:1"
           d="m 107.28349,19.528753 -3.15784,12.631364"
           id="path503" /><path
           style="opacity:1;fill:none;fill-opacity:1;stroke:#000000;stroke-width:0.264999;stroke-linecap:round;stroke-linejoin:round;stroke-opacity:1"
           d="m 102.87913,20.525966 6.64809,12.465162"
           id="path504" /></g><g
         id="g506"><path
           style="display:inline;opacity:1;fill:none;fill-opacity:1;stroke:#000000;stroke-width:0.264999;stroke-linecap:round;stroke-linejoin:round;stroke-opacity:1"
           d="m 91.577388,45.497839 c 5.09016,1.732595 9.111462,-0.164083 13.545472,-2.36838 0,0 0.15453,9.004665 -0.74791,13.379272 -0.42315,2.051256 -0.4681,4.666461 -2.16063,5.900177 -1.6802,1.224727 -4.272058,0.94168 -6.232576,0.249303 -2.464794,-0.870467 -2.645695,-4.052152 -3.03319,-7.271344 -0.294229,-2.444367 -1.251792,-9.674155 -1.371166,-9.889028 z"
           id="path505"
           sodipodi:nodetypes="ccssssc" /><path
           style="opacity:1;fill:none;fill-opacity:1;stroke:#000000;stroke-width:0.264999;stroke-linecap:round;stroke-linejoin:round;stroke-opacity:1"
           d="m 97.519113,46.037997 1.578922,12.756015"
           id="path506" /></g><g
         id="g519"
         transform="translate(10.179882,0.45705593)"><path
           style="display:inline;opacity:1;fill:none;fill-opacity:1;stroke:#000000;stroke-width:0.264999;stroke-linecap:round;stroke-linejoin:round;stroke-opacity:1"
           d="m 115.5936,17.783631 c 0,0 -0.50903,-5.633519 0.20775,-8.3101082 0.55471,-2.0714196 1.46197,-4.237553 3.07474,-5.6508731 1.53984,-1.3494092 3.68755,-2.1375742 5.73397,-2.2021787 2.4081,-0.076023 5.23548,0.4162824 6.8974,2.160628 1.36254,1.4301216 1.18429,3.7834048 1.49582,5.7339742 0.31952,2.0006098 0.50888,4.0449128 0.37395,6.0663788 -0.0715,1.070538 -0.62326,3.157841 -0.62326,3.157841 0,0 -2.3595,-2.836146 -3.98885,-2.825437 -1.57627,0.01036 -2.26762,2.525779 -3.82265,2.783887 -1.01559,0.168571 -2.05086,-0.412878 -2.95009,-0.914112 -0.99467,-0.55443 -1.44023,-2.163246 -2.57613,-2.243729 -0.88904,-0.06299 -1.46999,1.01191 -2.24373,1.454268 -0.51084,0.292052 -1.57892,0.789461 -1.57892,0.789461 z"
           id="path507"
           sodipodi:nodetypes="csssssscsssssc" /><path
           style="opacity:1;fill:none;fill-opacity:1;stroke:#000000;stroke-width:0.264999;stroke-linecap:round;stroke-linejoin:round;stroke-opacity:1"
           d="M 120.70431,9.6397249 120.57966,6.1079293"
           id="path508" /><path
           style="opacity:1;fill:none;fill-opacity:1;stroke:#000000;stroke-width:0.264999;stroke-linecap:round;stroke-linejoin:round;stroke-opacity:1"
           d="m 126.56294,9.0580174 0.29085,-3.614897"
           id="path509" /><path
           style="opacity:1;fill:none;fill-opacity:1;stroke:#000000;stroke-width:0.264999;stroke-linecap:round;stroke-linejoin:round;stroke-opacity:1"
           d="m 115.926,8.6425121 c -1.37416,-1.9364538 -2.35152,-4.2130341 -2.95008,-6.8142884 1.75148,1.0773373 3.50062,2.1710932 5.36001,2.4930322"
           id="path510"
           sodipodi:nodetypes="ccc" /><path
           style="opacity:1;fill:none;fill-opacity:1;stroke:#000000;stroke-width:0.264999;stroke-linecap:round;stroke-linejoin:round;stroke-opacity:1"
           d="m 132.46312,4.9029636 c 1.72117,0.060798 3.08698,-0.8260498 4.48745,-1.6204711 -0.89039,2.7165965 -2.06008,5.2469975 -3.61489,7.5206475"
           id="path511"
           sodipodi:nodetypes="ccc" /><path
           style="opacity:1;fill:none;fill-opacity:1;stroke:#000000;stroke-width:0.264999;stroke-linecap:round;stroke-linejoin:round;stroke-opacity:1"
           d="M 118.66834,12.008106 111.93715,7.2713442"
           id="path512" /><path
           style="opacity:1;fill:none;fill-opacity:1;stroke:#000000;stroke-width:0.264999;stroke-linecap:round;stroke-linejoin:round;stroke-opacity:1"
           d="m 117.87888,13.254622 c -2.04983,-0.241546 -4.09965,-0.04893 -6.14948,0.706359"
           id="path513"
           sodipodi:nodetypes="cc" /><path
           style="opacity:1;fill:none;fill-opacity:1;stroke:#000000;stroke-width:0.264999;stroke-linecap:round;stroke-linejoin:round;stroke-opacity:1"
           d="m 119.66555,15.332149 c -2.60332,-0.301403 -4.90265,0.178893 -6.73119,1.869774"
           id="path514"
           sodipodi:nodetypes="cc" /><path
           style="opacity:1;fill:none;fill-opacity:1;stroke:#000000;stroke-width:0.264999;stroke-linecap:round;stroke-linejoin:round;stroke-opacity:1"
           d="m 130.8842,14.376486 7.7284,4.944515"
           id="path515" /><path
           style="opacity:1;fill:none;fill-opacity:1;stroke:#000000;stroke-width:0.264999;stroke-linecap:round;stroke-linejoin:round;stroke-opacity:1"
           d="m 130.67644,13.005319 6.56499,1.412718"
           id="path516" /><path
           style="opacity:1;fill:none;fill-opacity:1;stroke:#000000;stroke-width:0.264999;stroke-linecap:round;stroke-linejoin:round;stroke-opacity:1"
           d="m 129.51303,12.631364 c 2.96003,-1.401578 6.29351,-2.280316 9.80593,-2.9085381"
           id="path517"
           sodipodi:nodetypes="cc" /><path
           style="opacity:1;fill:none;fill-opacity:1;stroke:#000000;stroke-width:0.264999;stroke-linecap:round;stroke-linejoin:round;stroke-opacity:1"
           d="m 120.03951,12.465161 c 0,0 1.20251,2.131265 2.24372,2.617685 1.05414,0.49246 2.45859,0.579518 3.49025,0.04155 1.06956,-0.55773 2.03598,-2.991639 2.03598,-2.991639"
           id="path518"
           sodipodi:nodetypes="cssc" /><path
           style="opacity:1;fill:#000000;fill-opacity:1;stroke:#000000;stroke-width:0.264999;stroke-linecap:round;stroke-linejoin:round;stroke-opacity:1"
           d="m 122.15858,9.9305786 1.57892,5.3184684 1.53737,-5.4431199 z"
           id="path519"
           sodipodi:nodetypes="cccc" /></g><g
         id="g539"
         transform="matrix(0.88897538,0,0,0.88885402,14.801907,-1.2275629)"
         style="stroke-width:1.12497"><path
           id="path520"
           style="opacity:1;fill:none;stroke:#000000;stroke-width:0.27956;stroke-linecap:round;stroke-linejoin:round"
           d="m 21.86383,13.420824 c 0,4.754734 -3.547527,8.609208 -7.923624,8.609208 -4.3760971,0 -8.0939578,-3.857525 -7.9236249,-8.609208 0.1645439,-4.5901906 3.5884766,-8.5682595 7.9236249,-8.6092081 4.375902,-0.041334 7.923624,3.854474 7.923624,8.6092081 z"
           sodipodi:nodetypes="sssss" /><ellipse
           style="opacity:1;fill:none;fill-opacity:1;stroke:#000000;stroke-width:0.280075;stroke-linecap:round;stroke-linejoin:round;stroke-opacity:1"
           id="path521"
           cx="14.542688"
           cy="10.990118"
           rx="4.2461729"
           ry="4.640903" /><ellipse
           style="opacity:1;fill:#000000;fill-opacity:1;stroke:#000000;stroke-width:0.298115;stroke-linecap:round;stroke-linejoin:round;stroke-opacity:1"
           id="path522"
           cx="14.791991"
           cy="10.990117"
           rx="2.3683808"
           ry="2.5969088" /><path
           style="opacity:1;fill:none;fill-opacity:1;stroke:#000000;stroke-width:0.298115;stroke-linecap:round;stroke-linejoin:round;stroke-opacity:1"
           d="m 6.0663788,14.875093 c 0,0 -1.8392239,-1.746036 -2.3683809,-2.866987 C 3.2944751,11.153295 2.9185026,10.138687 3.1578409,9.2242197 3.3096093,8.6443411 3.8004521,7.5563091 4.3212559,7.8530518 5.3250012,8.424964 6.3571303,10.844997 6.398783,10.720039"
           id="path523"
           sodipodi:nodetypes="csssc" /><path
           style="opacity:1;fill:none;fill-opacity:1;stroke:#000000;stroke-width:0.298115;stroke-linecap:round;stroke-linejoin:round;stroke-opacity:1"
           d="M 7.8946025,7.8115013 C 7.1250927,6.5256469 6.3735613,5.2293052 6.5234346,3.4071441 7.5386191,4.501021 8.644832,5.4355981 9.9721293,5.9832776"
           id="path524"
           sodipodi:nodetypes="ccc" /><path
           style="opacity:1;fill:none;fill-opacity:1;stroke:#000000;stroke-width:0.298115;stroke-linecap:round;stroke-linejoin:round;stroke-opacity:1"
           d="m 18.365338,6.1494796 c 0.412569,-0.849628 1.632283,-2.9895507 1.632283,-2.9895507 0,0 0.627449,1.3455631 0.720111,2.2597168 0.133969,1.3216696 0.01868,3.086163 -0.274867,2.8904621"
           id="path525"
           sodipodi:nodetypes="ccsc" /><path
           style="opacity:1;fill:none;fill-opacity:1;stroke:#000000;stroke-width:0.298115;stroke-linecap:round;stroke-linejoin:round;stroke-opacity:1"
           d="m 21.897134,11.925005 c 0.210033,0.210033 2.077003,-2.9997721 3.033189,-3.905751 0.784273,-0.7430919 2.13522,0.9446296 2.617683,1.9113246 0.432988,0.8675644 0.211923,2.0099874 -0.217834,2.8791564 -0.476495,0.963697 -1.358516,1.628592 -2.358298,2.023807 -1.047196,0.413958 -3.248071,0.232093 -3.248071,0.232093"
           id="path526"
           sodipodi:nodetypes="cssssc" /><path
           style="opacity:1;fill:none;fill-opacity:1;stroke:#000000;stroke-width:0.298115;stroke-linecap:round;stroke-linejoin:round;stroke-opacity:1"
           d="m 20.654609,18.157253 c 0,0 2.119173,1.325687 3.320016,1.439652 0.84918,0.08059 2.497358,-0.558232 2.497358,-0.558232 l -0.146905,2.438595 c 0,0 -1.979898,0.684157 -3.055589,0.44071 -1.391348,-0.314885 -3.701964,-2.350453 -3.701964,-2.350453"
           id="path527"
           sodipodi:nodetypes="csccsc" /><path
           style="opacity:1;fill:none;fill-opacity:1;stroke:#000000;stroke-width:0.298115;stroke-linecap:round;stroke-linejoin:round;stroke-opacity:1"
           d="m 18.627343,20.390183 c 0,0 1.672926,1.634366 1.73346,2.703022 0.03765,0.66468 -0.378891,1.35555 -0.88142,1.792221 C 18.981442,25.31811 18.251589,25.598935 17.59902,25.50242 16.652946,25.362496 15.742881,24.675812 15.248566,23.857102 14.9271,23.324674 15.013521,22.00612 15.013521,22.00612"
           id="path528"
           sodipodi:nodetypes="cssssc" /><path
           style="opacity:1;fill:none;fill-opacity:1;stroke:#000000;stroke-width:0.298115;stroke-linecap:round;stroke-linejoin:round;stroke-opacity:1"
           d="m 13.074397,22.035501 c 0,0 0.580246,1.590575 0.264426,2.291692 -0.259991,0.577176 -0.951748,0.902192 -1.557175,1.087085 -0.562069,0.171652 -1.253252,0.263376 -1.76284,-0.02938 C 9.313925,24.979946 8.9504981,24.088045 8.7554389,23.29887 8.6377307,22.822643 8.666634,22.287371 8.8435809,21.829837 9.0068842,21.407582 9.6956204,20.772133 9.6956204,20.772133"
           id="path529"
           sodipodi:nodetypes="csssssc" /><path
           style="opacity:1;fill:none;fill-opacity:1;stroke:#000000;stroke-width:0.298115;stroke-linecap:round;stroke-linejoin:round;stroke-opacity:1"
           d="m 8.8142003,15.601134 c 0.1374052,-0.652706 0.660004,-1.244488 1.5865557,-1.469033"
           id="path530"
           sodipodi:nodetypes="cc" /><path
           style="opacity:1;fill:none;fill-opacity:1;stroke:#000000;stroke-width:0.298115;stroke-linecap:round;stroke-linejoin:round;stroke-opacity:1"
           d="m 18.803627,13.250681 c 0.642895,0.238525 1.178664,0.584176 1.586556,1.057704"
           id="path531"
           sodipodi:nodetypes="cc" /><path
           style="opacity:1;fill:none;fill-opacity:1;stroke:#000000;stroke-width:0.298115;stroke-linecap:round;stroke-linejoin:round;stroke-opacity:1"
           d="m 18.891769,13.63263 c 0,0 -1.664776,2.769268 -3.055589,3.378777 -0.941893,0.412774 -2.118674,0.322496 -3.08497,-0.02938 -1.01331,-0.368996 -2.64426,-2.321073 -2.64426,-2.321073"
           id="path532"
           sodipodi:nodetypes="cssc" /><path
           style="opacity:1;fill:none;fill-opacity:1;stroke:#000000;stroke-width:0.298115;stroke-linecap:round;stroke-linejoin:round;stroke-opacity:1"
           d="m 9.7837624,15.571754 c 0,0 1.0715716,2.854891 2.1741696,3.819487 0.747347,0.653808 1.768883,1.128479 2.761782,1.116465 1.109706,-0.01343 2.237215,-0.572536 3.05559,-1.32213 0.69799,-0.639328 1.042611,-1.602644 1.351511,-2.497357 0.285314,-0.826397 0.44071,-2.585499 0.44071,-2.585499"
           id="path533"
           sodipodi:nodetypes="cssssc" /><path
           style="opacity:1;fill:none;fill-opacity:1;stroke:#000000;stroke-width:0.298115;stroke-linecap:round;stroke-linejoin:round;stroke-opacity:1"
           d="m 11.88448,16.556006 0.661065,1.806911 1.395581,-1.043014"
           id="path534"
           sodipodi:nodetypes="ccc" /><path
           style="opacity:1;fill:none;fill-opacity:1;stroke:#000000;stroke-width:0.298115;stroke-linecap:round;stroke-linejoin:round;stroke-opacity:1"
           d="m 14.572811,20.404874 0.235045,-1.630627 2.64426,0.616993"
           id="path535"
           sodipodi:nodetypes="ccc" /><path
           style="opacity:1;fill:none;fill-opacity:1;stroke:#000000;stroke-width:0.298115;stroke-linecap:round;stroke-linejoin:round;stroke-opacity:1"
           d="m 14.705024,17.319904 1.424962,0.984252 0.705137,-1.895053"
           id="path536"
           sodipodi:nodetypes="ccc" /><path
           style="opacity:1;fill:none;fill-opacity:1;stroke:#000000;stroke-width:0.298115;stroke-linecap:round;stroke-linejoin:round;stroke-opacity:1"
           d="m 11.781647,19.112124 1.498415,-0.602303 0.235045,1.748149"
           id="path537"
           sodipodi:nodetypes="ccc" /><path
           style="opacity:1;fill:none;fill-opacity:1;stroke:#000000;stroke-width:0.298115;stroke-linecap:round;stroke-linejoin:round;stroke-opacity:1"
           d="m 17.363975,15.82149 1.087084,0.04407 -0.117522,-1.145847"
           id="path538"
           sodipodi:nodetypes="ccc" /><path
           style="opacity:1;fill:none;fill-opacity:1;stroke:#000000;stroke-width:0.298115;stroke-linecap:round;stroke-linejoin:round;stroke-opacity:1"
           d="m 17.951588,18.90646 -0.293807,-1.601247 1.29275,-0.499471"
           id="path539"
           sodipodi:nodetypes="ccc" /></g></g></g></svg>
